G75*
G70*
%OFA0B0*%
%FSLAX24Y24*%
%IPPOS*%
%LPD*%
%AMOC8*
5,1,8,0,0,1.08239X$1,22.5*
%
%ADD10C,0.0760*%
%ADD11C,0.0600*%
%ADD12C,0.0700*%
%ADD13C,0.0160*%
%ADD14C,0.0396*%
D10*
X005000Y004748D03*
X006000Y004748D03*
X007000Y004748D03*
X008000Y004748D03*
X009000Y004748D03*
X010000Y004748D03*
X011000Y004748D03*
X012000Y004748D03*
X014000Y004748D03*
X015000Y004748D03*
X016000Y004748D03*
X017000Y004748D03*
X018000Y004748D03*
X019000Y004748D03*
X019000Y023748D03*
X018000Y023748D03*
X017000Y023748D03*
X016000Y023748D03*
X015000Y023748D03*
X014000Y023748D03*
X013000Y023748D03*
X012000Y023748D03*
X010400Y023748D03*
X009400Y023748D03*
X008400Y023748D03*
X007400Y023748D03*
X006400Y023748D03*
X005400Y023748D03*
X004400Y023748D03*
X003400Y023748D03*
X002400Y023748D03*
X001400Y023748D03*
D11*
X004500Y020048D02*
X004500Y019448D01*
X005500Y019448D02*
X005500Y020048D01*
X006500Y020048D02*
X006500Y019448D01*
X007500Y019448D02*
X007500Y020048D01*
X008500Y020048D02*
X008500Y019448D01*
D12*
X005280Y008748D03*
X002720Y008748D03*
D13*
X001111Y004252D02*
X001111Y023261D01*
X001289Y023188D01*
X001511Y023188D01*
X001717Y023273D01*
X001875Y023430D01*
X001900Y023491D01*
X001925Y023430D01*
X002083Y023273D01*
X002289Y023188D01*
X002511Y023188D01*
X002717Y023273D01*
X002875Y023430D01*
X002900Y023491D01*
X002925Y023430D01*
X003083Y023273D01*
X003289Y023188D01*
X003511Y023188D01*
X003717Y023273D01*
X003875Y023430D01*
X003960Y023636D01*
X003960Y023859D01*
X003875Y024065D01*
X003717Y024222D01*
X003635Y024256D01*
X005165Y024256D01*
X005083Y024222D01*
X004925Y024065D01*
X004840Y023859D01*
X004840Y023636D01*
X004925Y023430D01*
X005083Y023273D01*
X005289Y023188D01*
X005511Y023188D01*
X005717Y023273D01*
X005875Y023430D01*
X005900Y023491D01*
X005925Y023430D01*
X006083Y023273D01*
X006289Y023188D01*
X006511Y023188D01*
X006717Y023273D01*
X006875Y023430D01*
X006900Y023491D01*
X006925Y023430D01*
X007083Y023273D01*
X007289Y023188D01*
X007511Y023188D01*
X007717Y023273D01*
X007875Y023430D01*
X007900Y023491D01*
X007925Y023430D01*
X008083Y023273D01*
X008289Y023188D01*
X008511Y023188D01*
X008717Y023273D01*
X008875Y023430D01*
X008900Y023491D01*
X008925Y023430D01*
X009083Y023273D01*
X009289Y023188D01*
X009511Y023188D01*
X009717Y023273D01*
X009875Y023430D01*
X009900Y023491D01*
X009925Y023430D01*
X010083Y023273D01*
X010289Y023188D01*
X010511Y023188D01*
X010717Y023273D01*
X010875Y023430D01*
X010960Y023636D01*
X010960Y023859D01*
X010875Y024065D01*
X010717Y024222D01*
X010635Y024256D01*
X011765Y024256D01*
X011683Y024222D01*
X011525Y024065D01*
X011440Y023859D01*
X011440Y023636D01*
X011525Y023430D01*
X011683Y023273D01*
X011889Y023188D01*
X012111Y023188D01*
X012317Y023273D01*
X012475Y023430D01*
X012500Y023491D01*
X012525Y023430D01*
X012683Y023273D01*
X012889Y023188D01*
X013111Y023188D01*
X013317Y023273D01*
X013475Y023430D01*
X013500Y023491D01*
X013525Y023430D01*
X013683Y023273D01*
X013889Y023188D01*
X014111Y023188D01*
X014317Y023273D01*
X014475Y023430D01*
X014500Y023491D01*
X014525Y023430D01*
X014683Y023273D01*
X014889Y023188D01*
X015111Y023188D01*
X015317Y023273D01*
X015475Y023430D01*
X015500Y023491D01*
X015525Y023430D01*
X015683Y023273D01*
X015889Y023188D01*
X016111Y023188D01*
X016317Y023273D01*
X016475Y023430D01*
X016500Y023491D01*
X016525Y023430D01*
X016683Y023273D01*
X016889Y023188D01*
X017111Y023188D01*
X017317Y023273D01*
X017475Y023430D01*
X017500Y023491D01*
X017525Y023430D01*
X017683Y023273D01*
X017889Y023188D01*
X018111Y023188D01*
X018317Y023273D01*
X018475Y023430D01*
X018500Y023491D01*
X018525Y023430D01*
X018683Y023273D01*
X018889Y023188D01*
X019071Y023188D01*
X019071Y005308D01*
X018889Y005308D01*
X018683Y005222D01*
X018525Y005065D01*
X018500Y005004D01*
X018475Y005065D01*
X018317Y005222D01*
X018111Y005308D01*
X017889Y005308D01*
X017683Y005222D01*
X017525Y005065D01*
X017500Y005004D01*
X017475Y005065D01*
X017317Y005222D01*
X017111Y005308D01*
X016889Y005308D01*
X016683Y005222D01*
X016525Y005065D01*
X016500Y005004D01*
X016475Y005065D01*
X016317Y005222D01*
X016111Y005308D01*
X015889Y005308D01*
X015683Y005222D01*
X015525Y005065D01*
X015500Y005004D01*
X015475Y005065D01*
X015317Y005222D01*
X015111Y005308D01*
X014889Y005308D01*
X014683Y005222D01*
X014525Y005065D01*
X014500Y005004D01*
X014475Y005065D01*
X014317Y005222D01*
X014111Y005308D01*
X013889Y005308D01*
X013683Y005222D01*
X013525Y005065D01*
X013440Y004859D01*
X013440Y004636D01*
X013525Y004430D01*
X013683Y004273D01*
X013732Y004252D01*
X012268Y004252D01*
X012317Y004273D01*
X012475Y004430D01*
X012560Y004636D01*
X012560Y004859D01*
X012475Y005065D01*
X012317Y005222D01*
X012111Y005308D01*
X011889Y005308D01*
X011683Y005222D01*
X011525Y005065D01*
X011440Y004859D01*
X011440Y004636D01*
X011525Y004430D01*
X011683Y004273D01*
X011732Y004252D01*
X009268Y004252D01*
X009317Y004273D01*
X009475Y004430D01*
X009560Y004636D01*
X009560Y004859D01*
X009475Y005065D01*
X009317Y005222D01*
X009111Y005308D01*
X008889Y005308D01*
X008683Y005222D01*
X008525Y005065D01*
X008500Y005004D01*
X008475Y005065D01*
X008317Y005222D01*
X008111Y005308D01*
X007889Y005308D01*
X007683Y005222D01*
X007525Y005065D01*
X007500Y005004D01*
X007475Y005065D01*
X007317Y005222D01*
X007111Y005308D01*
X006889Y005308D01*
X006683Y005222D01*
X006525Y005065D01*
X006500Y005004D01*
X006475Y005065D01*
X006317Y005222D01*
X006111Y005308D01*
X005889Y005308D01*
X005683Y005222D01*
X005525Y005065D01*
X005500Y005004D01*
X005475Y005065D01*
X005317Y005222D01*
X005111Y005308D01*
X004889Y005308D01*
X004683Y005222D01*
X004525Y005065D01*
X004440Y004859D01*
X004440Y004636D01*
X004525Y004430D01*
X004683Y004273D01*
X004732Y004252D01*
X001111Y004252D01*
X001111Y004356D02*
X004600Y004356D01*
X004491Y004514D02*
X001111Y004514D01*
X001111Y004673D02*
X004440Y004673D01*
X004440Y004831D02*
X001111Y004831D01*
X001111Y004990D02*
X004494Y004990D01*
X004609Y005148D02*
X001111Y005148D01*
X001111Y005307D02*
X004886Y005307D01*
X005114Y005307D02*
X005886Y005307D01*
X006114Y005307D02*
X006886Y005307D01*
X007114Y005307D02*
X007886Y005307D01*
X008114Y005307D02*
X008886Y005307D01*
X009114Y005307D02*
X011886Y005307D01*
X012114Y005307D02*
X013886Y005307D01*
X014114Y005307D02*
X014886Y005307D01*
X015114Y005307D02*
X015886Y005307D01*
X016114Y005307D02*
X016886Y005307D01*
X017114Y005307D02*
X017886Y005307D01*
X018114Y005307D02*
X018886Y005307D01*
X019071Y005465D02*
X001111Y005465D01*
X001111Y005624D02*
X019071Y005624D01*
X019071Y005782D02*
X001111Y005782D01*
X001111Y005941D02*
X019071Y005941D01*
X019071Y006099D02*
X001111Y006099D01*
X001111Y006258D02*
X019071Y006258D01*
X019071Y006416D02*
X001111Y006416D01*
X001111Y006575D02*
X019071Y006575D01*
X019071Y006733D02*
X001111Y006733D01*
X001111Y006892D02*
X019071Y006892D01*
X019071Y007050D02*
X001111Y007050D01*
X001111Y007209D02*
X019071Y007209D01*
X019071Y007367D02*
X001111Y007367D01*
X001111Y007526D02*
X019071Y007526D01*
X019071Y007684D02*
X001111Y007684D01*
X001111Y007843D02*
X019071Y007843D01*
X019071Y008001D02*
X001111Y008001D01*
X001111Y008160D02*
X019071Y008160D01*
X019071Y008318D02*
X005600Y008318D01*
X005580Y008298D02*
X005729Y008447D01*
X005810Y008642D01*
X005810Y008853D01*
X005729Y009048D01*
X005580Y009197D01*
X005385Y009278D01*
X005174Y009278D01*
X004979Y009197D01*
X004830Y009048D01*
X004750Y008853D01*
X004750Y008642D01*
X004830Y008447D01*
X004979Y008298D01*
X005174Y008218D01*
X005385Y008218D01*
X005580Y008298D01*
X005741Y008477D02*
X019071Y008477D01*
X019071Y008635D02*
X005807Y008635D01*
X005810Y008794D02*
X019071Y008794D01*
X019071Y008952D02*
X005768Y008952D01*
X005666Y009111D02*
X019071Y009111D01*
X019071Y009269D02*
X005405Y009269D01*
X005154Y009269D02*
X002846Y009269D01*
X002826Y009278D02*
X002615Y009278D01*
X002420Y009197D01*
X002271Y009048D01*
X002190Y008853D01*
X002190Y008642D01*
X002271Y008447D01*
X002420Y008298D01*
X002615Y008218D01*
X002826Y008218D01*
X003021Y008298D01*
X003170Y008447D01*
X003250Y008642D01*
X003250Y008853D01*
X003170Y009048D01*
X003021Y009197D01*
X002826Y009278D01*
X002595Y009269D02*
X001111Y009269D01*
X001111Y009111D02*
X002334Y009111D01*
X002232Y008952D02*
X001111Y008952D01*
X001111Y008794D02*
X002190Y008794D01*
X002193Y008635D02*
X001111Y008635D01*
X001111Y008477D02*
X002259Y008477D01*
X002400Y008318D02*
X001111Y008318D01*
X003041Y008318D02*
X004959Y008318D01*
X004818Y008477D02*
X003182Y008477D01*
X003248Y008635D02*
X004752Y008635D01*
X004750Y008794D02*
X003250Y008794D01*
X003209Y008952D02*
X004791Y008952D01*
X004893Y009111D02*
X003107Y009111D01*
X001111Y009428D02*
X019071Y009428D01*
X019071Y009586D02*
X001111Y009586D01*
X001111Y009745D02*
X019071Y009745D01*
X019071Y009903D02*
X001111Y009903D01*
X001111Y010062D02*
X019071Y010062D01*
X019071Y010220D02*
X001111Y010220D01*
X001111Y010379D02*
X019071Y010379D01*
X019071Y010537D02*
X001111Y010537D01*
X001111Y010696D02*
X019071Y010696D01*
X019071Y010854D02*
X001111Y010854D01*
X001111Y011013D02*
X011638Y011013D01*
X011603Y011027D02*
X011698Y010988D01*
X017225Y010988D01*
X017286Y010927D01*
X017425Y010869D01*
X017575Y010869D01*
X017714Y010927D01*
X017821Y011033D01*
X017878Y011172D01*
X017878Y011323D01*
X017821Y011462D01*
X017714Y011568D01*
X017575Y011626D01*
X017425Y011626D01*
X017286Y011568D01*
X017225Y011508D01*
X011858Y011508D01*
X010260Y013105D01*
X010260Y018473D01*
X010321Y018533D01*
X010378Y018672D01*
X010378Y018752D01*
X010490Y018640D01*
X010490Y018196D01*
X010530Y018100D01*
X010603Y018027D01*
X011103Y017527D01*
X011198Y017488D01*
X011705Y017488D01*
X011679Y017462D01*
X011622Y017323D01*
X011622Y017172D01*
X011628Y017158D01*
X011298Y016663D01*
X011280Y016645D01*
X011270Y016621D01*
X011255Y016599D01*
X011250Y016573D01*
X011240Y016549D01*
X011240Y016523D01*
X011235Y016497D01*
X011240Y016472D01*
X011240Y013196D01*
X011280Y013100D01*
X011353Y013027D01*
X012030Y012350D01*
X012103Y012277D01*
X012198Y012238D01*
X012591Y012238D01*
X012622Y012250D01*
X012622Y012172D01*
X012679Y012033D01*
X012786Y011927D01*
X012925Y011869D01*
X013075Y011869D01*
X013214Y011927D01*
X013275Y011988D01*
X013802Y011988D01*
X013897Y012027D01*
X014858Y012988D01*
X016475Y012988D01*
X016536Y012927D01*
X016675Y012869D01*
X016825Y012869D01*
X016964Y012927D01*
X017071Y013033D01*
X017128Y013172D01*
X017128Y013323D01*
X017071Y013462D01*
X016964Y013568D01*
X016825Y013626D01*
X016675Y013626D01*
X016536Y013568D01*
X016475Y013508D01*
X016045Y013508D01*
X016071Y013533D01*
X016128Y013672D01*
X016128Y013823D01*
X016071Y013962D01*
X015964Y014068D01*
X015825Y014126D01*
X015675Y014126D01*
X015536Y014068D01*
X015475Y014008D01*
X014534Y014008D01*
X014438Y013968D01*
X013393Y012923D01*
X013378Y012923D01*
X013378Y013008D01*
X014720Y014350D01*
X014760Y014446D01*
X014760Y014723D01*
X014821Y014783D01*
X014878Y014922D01*
X014878Y015073D01*
X014821Y015212D01*
X014714Y015318D01*
X014575Y015376D01*
X014425Y015376D01*
X014286Y015318D01*
X014179Y015212D01*
X014122Y015073D01*
X014122Y014922D01*
X014179Y014783D01*
X014240Y014723D01*
X014240Y014605D01*
X013010Y013376D01*
X012925Y013376D01*
X012786Y013318D01*
X012679Y013212D01*
X012622Y013073D01*
X012042Y013073D01*
X011884Y013232D02*
X012699Y013232D01*
X012622Y013073D02*
X012622Y012922D01*
X012626Y012912D01*
X012557Y012883D01*
X012484Y012810D01*
X012432Y012758D01*
X012358Y012758D01*
X011760Y013355D01*
X011760Y016419D01*
X012060Y016869D01*
X012075Y016869D01*
X012214Y016927D01*
X012321Y017033D01*
X012378Y017172D01*
X012378Y017252D01*
X012853Y016777D01*
X012948Y016738D01*
X013892Y016738D01*
X015603Y015027D01*
X015698Y014988D01*
X015725Y014988D01*
X015786Y014927D01*
X015925Y014869D01*
X016075Y014869D01*
X016214Y014927D01*
X016321Y015033D01*
X016378Y015172D01*
X016378Y015323D01*
X016321Y015462D01*
X016214Y015568D01*
X016075Y015626D01*
X015925Y015626D01*
X015794Y015571D01*
X014220Y017145D01*
X014147Y017218D01*
X014052Y017258D01*
X013108Y017258D01*
X012470Y017895D01*
X012397Y017968D01*
X012302Y018008D01*
X012295Y018008D01*
X012321Y018033D01*
X012378Y018172D01*
X012378Y018323D01*
X012321Y018462D01*
X012214Y018568D01*
X012075Y018626D01*
X011925Y018626D01*
X011786Y018568D01*
X011725Y018508D01*
X011608Y018508D01*
X011510Y018605D01*
X011510Y018799D01*
X011470Y018895D01*
X010647Y019718D01*
X010552Y019758D01*
X009448Y019758D01*
X009353Y019718D01*
X008975Y019340D01*
X008980Y019352D01*
X008980Y020143D01*
X008907Y020319D01*
X008772Y020454D01*
X008595Y020528D01*
X008405Y020528D01*
X008228Y020454D01*
X008093Y020319D01*
X008020Y020143D01*
X008020Y019352D01*
X008093Y019176D01*
X008228Y019041D01*
X008240Y019036D01*
X008240Y017196D01*
X008280Y017100D01*
X008353Y017027D01*
X008990Y016390D01*
X008990Y012446D01*
X009030Y012350D01*
X009103Y012277D01*
X009622Y011758D01*
X009622Y011672D01*
X009679Y011533D01*
X009786Y011427D01*
X009925Y011369D01*
X010075Y011369D01*
X010214Y011427D01*
X010321Y011533D01*
X010378Y011672D01*
X010378Y011823D01*
X010321Y011962D01*
X010214Y012068D01*
X010075Y012126D01*
X009990Y012126D01*
X009510Y012605D01*
X009510Y016549D01*
X009470Y016645D01*
X008760Y017355D01*
X008760Y017953D01*
X008786Y017927D01*
X008925Y017869D01*
X009075Y017869D01*
X009214Y017927D01*
X009321Y018033D01*
X009378Y018172D01*
X009378Y018323D01*
X009321Y018462D01*
X009260Y018522D01*
X009260Y018703D01*
X009286Y018677D01*
X009425Y018619D01*
X009575Y018619D01*
X009634Y018644D01*
X009679Y018533D01*
X009740Y018473D01*
X009740Y012946D01*
X009780Y012850D01*
X011530Y011100D01*
X011603Y011027D01*
X011459Y011171D02*
X001111Y011171D01*
X001111Y011330D02*
X011300Y011330D01*
X011142Y011488D02*
X010275Y011488D01*
X010367Y011647D02*
X010983Y011647D01*
X010825Y011805D02*
X010378Y011805D01*
X010319Y011964D02*
X010666Y011964D01*
X010508Y012122D02*
X010084Y012122D01*
X009835Y012281D02*
X010349Y012281D01*
X010191Y012439D02*
X009676Y012439D01*
X009518Y012598D02*
X010032Y012598D01*
X009874Y012756D02*
X009510Y012756D01*
X009510Y012915D02*
X009753Y012915D01*
X009740Y013073D02*
X009510Y013073D01*
X009510Y013232D02*
X009740Y013232D01*
X009740Y013390D02*
X009510Y013390D01*
X009510Y013549D02*
X009740Y013549D01*
X009740Y013707D02*
X009510Y013707D01*
X009510Y013866D02*
X009740Y013866D01*
X009740Y014024D02*
X009510Y014024D01*
X009510Y014183D02*
X009740Y014183D01*
X009740Y014341D02*
X009510Y014341D01*
X009510Y014500D02*
X009740Y014500D01*
X009740Y014658D02*
X009510Y014658D01*
X009510Y014817D02*
X009740Y014817D01*
X009740Y014975D02*
X009510Y014975D01*
X009510Y015134D02*
X009740Y015134D01*
X009740Y015292D02*
X009510Y015292D01*
X009510Y015451D02*
X009740Y015451D01*
X009740Y015609D02*
X009510Y015609D01*
X009510Y015768D02*
X009740Y015768D01*
X009740Y015926D02*
X009510Y015926D01*
X009510Y016085D02*
X009740Y016085D01*
X009740Y016243D02*
X009510Y016243D01*
X009510Y016402D02*
X009740Y016402D01*
X009740Y016560D02*
X009506Y016560D01*
X009397Y016719D02*
X009740Y016719D01*
X009740Y016877D02*
X009238Y016877D01*
X009080Y017036D02*
X009740Y017036D01*
X009740Y017194D02*
X008921Y017194D01*
X008763Y017353D02*
X009740Y017353D01*
X009740Y017511D02*
X008760Y017511D01*
X008760Y017670D02*
X009740Y017670D01*
X009740Y017828D02*
X008760Y017828D01*
X008500Y017748D02*
X008500Y019748D01*
X008500Y017248D01*
X009250Y016498D01*
X009250Y012498D01*
X010000Y011748D01*
X009725Y011488D02*
X001111Y011488D01*
X001111Y011647D02*
X009633Y011647D01*
X009575Y011805D02*
X001111Y011805D01*
X001111Y011964D02*
X009416Y011964D01*
X009258Y012122D02*
X001111Y012122D01*
X001111Y012281D02*
X009099Y012281D01*
X008993Y012439D02*
X001111Y012439D01*
X001111Y012598D02*
X008990Y012598D01*
X008990Y012756D02*
X001111Y012756D01*
X001111Y012915D02*
X008990Y012915D01*
X008990Y013073D02*
X001111Y013073D01*
X001111Y013232D02*
X008990Y013232D01*
X008990Y013390D02*
X001111Y013390D01*
X001111Y013549D02*
X008990Y013549D01*
X008990Y013707D02*
X001111Y013707D01*
X001111Y013866D02*
X008990Y013866D01*
X008990Y014024D02*
X001111Y014024D01*
X001111Y014183D02*
X008990Y014183D01*
X008990Y014341D02*
X001111Y014341D01*
X001111Y014500D02*
X008990Y014500D01*
X008990Y014658D02*
X001111Y014658D01*
X001111Y014817D02*
X008990Y014817D01*
X008990Y014975D02*
X001111Y014975D01*
X001111Y015134D02*
X008990Y015134D01*
X008990Y015292D02*
X001111Y015292D01*
X001111Y015451D02*
X008990Y015451D01*
X008990Y015609D02*
X001111Y015609D01*
X001111Y015768D02*
X008990Y015768D01*
X008990Y015926D02*
X001111Y015926D01*
X001111Y016085D02*
X008990Y016085D01*
X008990Y016243D02*
X001111Y016243D01*
X001111Y016402D02*
X008978Y016402D01*
X008820Y016560D02*
X001111Y016560D01*
X001111Y016719D02*
X008661Y016719D01*
X008503Y016877D02*
X001111Y016877D01*
X001111Y017036D02*
X008344Y017036D01*
X008241Y017194D02*
X001111Y017194D01*
X001111Y017353D02*
X008240Y017353D01*
X008240Y017511D02*
X001111Y017511D01*
X001111Y017670D02*
X008240Y017670D01*
X008240Y017828D02*
X001111Y017828D01*
X001111Y017987D02*
X008240Y017987D01*
X008240Y018145D02*
X001111Y018145D01*
X001111Y018304D02*
X008240Y018304D01*
X008240Y018462D02*
X001111Y018462D01*
X001111Y018621D02*
X008240Y018621D01*
X008240Y018779D02*
X001111Y018779D01*
X001111Y018938D02*
X008240Y018938D01*
X008173Y019096D02*
X007827Y019096D01*
X007772Y019041D02*
X007907Y019176D01*
X007980Y019352D01*
X007980Y020143D01*
X007907Y020319D01*
X007772Y020454D01*
X007595Y020528D01*
X007405Y020528D01*
X007228Y020454D01*
X007093Y020319D01*
X007020Y020143D01*
X007020Y019352D01*
X007093Y019176D01*
X007228Y019041D01*
X007405Y018968D01*
X007595Y018968D01*
X007772Y019041D01*
X007940Y019255D02*
X008060Y019255D01*
X008020Y019413D02*
X007980Y019413D01*
X007980Y019572D02*
X008020Y019572D01*
X008020Y019730D02*
X007980Y019730D01*
X007980Y019889D02*
X008020Y019889D01*
X008020Y020047D02*
X007980Y020047D01*
X007954Y020206D02*
X008046Y020206D01*
X008138Y020364D02*
X007862Y020364D01*
X007607Y020523D02*
X008393Y020523D01*
X008607Y020523D02*
X011122Y020523D01*
X011122Y020573D02*
X011122Y020422D01*
X011179Y020283D01*
X011286Y020177D01*
X011417Y020123D01*
X011286Y020068D01*
X011179Y019962D01*
X011122Y019823D01*
X011122Y019672D01*
X011179Y019533D01*
X011286Y019427D01*
X011425Y019369D01*
X011575Y019369D01*
X011714Y019427D01*
X011775Y019488D01*
X014052Y019488D01*
X014147Y019527D01*
X015490Y020869D01*
X015575Y020869D01*
X015714Y020927D01*
X015821Y021033D01*
X015878Y021172D01*
X015878Y021323D01*
X015821Y021462D01*
X015714Y021568D01*
X015575Y021626D01*
X015425Y021626D01*
X015286Y021568D01*
X015179Y021462D01*
X015122Y021323D01*
X015122Y021237D01*
X013892Y020008D01*
X011775Y020008D01*
X011714Y020068D01*
X011583Y020123D01*
X011714Y020177D01*
X011775Y020238D01*
X013802Y020238D01*
X013897Y020277D01*
X014490Y020869D01*
X014575Y020869D01*
X014714Y020927D01*
X014821Y021033D01*
X014878Y021172D01*
X014878Y021323D01*
X014821Y021462D01*
X014714Y021568D01*
X014575Y021626D01*
X014425Y021626D01*
X014286Y021568D01*
X014179Y021462D01*
X014125Y021330D01*
X014071Y021462D01*
X013964Y021568D01*
X013825Y021626D01*
X013675Y021626D01*
X013536Y021568D01*
X013475Y021508D01*
X012025Y021508D01*
X011964Y021568D01*
X011825Y021626D01*
X011675Y021626D01*
X011536Y021568D01*
X011429Y021462D01*
X011372Y021323D01*
X011372Y021172D01*
X011429Y021033D01*
X011536Y020927D01*
X011675Y020869D01*
X011825Y020869D01*
X011964Y020927D01*
X012025Y020988D01*
X013475Y020988D01*
X013536Y020927D01*
X013675Y020869D01*
X013754Y020869D01*
X013642Y020758D01*
X011775Y020758D01*
X011714Y020818D01*
X011575Y020876D01*
X011425Y020876D01*
X011286Y020818D01*
X011179Y020712D01*
X011122Y020573D01*
X011167Y020681D02*
X001111Y020681D01*
X001111Y020523D02*
X004393Y020523D01*
X004405Y020528D02*
X004228Y020454D01*
X004093Y020319D01*
X004020Y020143D01*
X004020Y019352D01*
X004093Y019176D01*
X004228Y019041D01*
X004405Y018968D01*
X004595Y018968D01*
X004772Y019041D01*
X004907Y019176D01*
X004980Y019352D01*
X004980Y020143D01*
X004907Y020319D01*
X004772Y020454D01*
X004595Y020528D01*
X004405Y020528D01*
X004607Y020523D02*
X005393Y020523D01*
X005405Y020528D02*
X005228Y020454D01*
X005093Y020319D01*
X005020Y020143D01*
X005020Y019352D01*
X005093Y019176D01*
X005228Y019041D01*
X005405Y018968D01*
X005595Y018968D01*
X005772Y019041D01*
X005907Y019176D01*
X005980Y019352D01*
X005980Y020143D01*
X005907Y020319D01*
X005772Y020454D01*
X005595Y020528D01*
X005405Y020528D01*
X005607Y020523D02*
X007393Y020523D01*
X007138Y020364D02*
X005862Y020364D01*
X005954Y020206D02*
X007046Y020206D01*
X007020Y020047D02*
X005980Y020047D01*
X005980Y019889D02*
X007020Y019889D01*
X007020Y019730D02*
X005980Y019730D01*
X005980Y019572D02*
X007020Y019572D01*
X007020Y019413D02*
X005980Y019413D01*
X005940Y019255D02*
X007060Y019255D01*
X007173Y019096D02*
X005827Y019096D01*
X005173Y019096D02*
X004827Y019096D01*
X004940Y019255D02*
X005060Y019255D01*
X005020Y019413D02*
X004980Y019413D01*
X004980Y019572D02*
X005020Y019572D01*
X005020Y019730D02*
X004980Y019730D01*
X004980Y019889D02*
X005020Y019889D01*
X005020Y020047D02*
X004980Y020047D01*
X004954Y020206D02*
X005046Y020206D01*
X005138Y020364D02*
X004862Y020364D01*
X004138Y020364D02*
X001111Y020364D01*
X001111Y020206D02*
X004046Y020206D01*
X004020Y020047D02*
X001111Y020047D01*
X001111Y019889D02*
X004020Y019889D01*
X004020Y019730D02*
X001111Y019730D01*
X001111Y019572D02*
X004020Y019572D01*
X004020Y019413D02*
X001111Y019413D01*
X001111Y019255D02*
X004060Y019255D01*
X004173Y019096D02*
X001111Y019096D01*
X001111Y020840D02*
X011338Y020840D01*
X011465Y020998D02*
X001111Y020998D01*
X001111Y021157D02*
X011378Y021157D01*
X011372Y021315D02*
X001111Y021315D01*
X001111Y021474D02*
X011441Y021474D01*
X011750Y021248D02*
X013750Y021248D01*
X014059Y021474D02*
X014191Y021474D01*
X014500Y021248D02*
X013750Y020498D01*
X011500Y020498D01*
X011662Y020840D02*
X013724Y020840D01*
X014143Y020523D02*
X014407Y020523D01*
X014301Y020681D02*
X014566Y020681D01*
X014460Y020840D02*
X014724Y020840D01*
X014785Y020998D02*
X014883Y020998D01*
X014872Y021157D02*
X015041Y021157D01*
X015122Y021315D02*
X014878Y021315D01*
X014809Y021474D02*
X015191Y021474D01*
X015500Y021248D02*
X014000Y019748D01*
X011500Y019748D01*
X011149Y019889D02*
X008980Y019889D01*
X008980Y020047D02*
X011265Y020047D01*
X011257Y020206D02*
X008954Y020206D01*
X008862Y020364D02*
X011146Y020364D01*
X011743Y020206D02*
X014090Y020206D01*
X013984Y020364D02*
X014249Y020364D01*
X013932Y020047D02*
X011735Y020047D01*
X011122Y019730D02*
X010618Y019730D01*
X010794Y019572D02*
X011164Y019572D01*
X011319Y019413D02*
X010952Y019413D01*
X011111Y019255D02*
X019071Y019255D01*
X019071Y019413D02*
X011681Y019413D01*
X011269Y019096D02*
X019071Y019096D01*
X019071Y018938D02*
X011428Y018938D01*
X011510Y018779D02*
X019071Y018779D01*
X019071Y018621D02*
X012087Y018621D01*
X011913Y018621D02*
X011510Y018621D01*
X011250Y018498D02*
X011250Y018748D01*
X010500Y019498D01*
X009500Y019498D01*
X009000Y018998D01*
X009000Y018248D01*
X009274Y017987D02*
X009740Y017987D01*
X009740Y018145D02*
X009367Y018145D01*
X009378Y018304D02*
X009740Y018304D01*
X009740Y018462D02*
X009320Y018462D01*
X009260Y018621D02*
X009422Y018621D01*
X009578Y018621D02*
X009643Y018621D01*
X010000Y018748D02*
X010000Y012998D01*
X011750Y011248D01*
X017500Y011248D01*
X017794Y011488D02*
X019071Y011488D01*
X019071Y011330D02*
X017875Y011330D01*
X017878Y011171D02*
X019071Y011171D01*
X019071Y011013D02*
X017800Y011013D01*
X019071Y011647D02*
X011719Y011647D01*
X011560Y011805D02*
X019071Y011805D01*
X019071Y011964D02*
X013251Y011964D01*
X013000Y012248D02*
X013750Y012248D01*
X014750Y013248D01*
X016750Y013248D01*
X017100Y013390D02*
X019071Y013390D01*
X019071Y013232D02*
X017128Y013232D01*
X017087Y013073D02*
X019071Y013073D01*
X019071Y012915D02*
X016934Y012915D01*
X016566Y012915D02*
X014785Y012915D01*
X014626Y012756D02*
X019071Y012756D01*
X019071Y012598D02*
X014468Y012598D01*
X014309Y012439D02*
X019071Y012439D01*
X019071Y012281D02*
X014151Y012281D01*
X013992Y012122D02*
X019071Y012122D01*
X019500Y012248D02*
X020000Y012248D01*
X022750Y009498D01*
X043250Y009498D01*
X046000Y006748D01*
X038500Y006748D02*
X036395Y008853D01*
X022395Y008853D01*
X020000Y011248D01*
X019500Y011248D01*
X019500Y010248D02*
X020000Y010248D01*
X022000Y008248D01*
X029250Y008248D01*
X031000Y006498D01*
X023000Y006248D02*
X020000Y009248D01*
X019500Y009248D01*
X014586Y013748D02*
X013501Y012663D01*
X012705Y012663D01*
X012539Y012498D01*
X012250Y012498D01*
X011500Y013248D01*
X011500Y016498D01*
X012000Y017248D01*
X011634Y017353D02*
X010260Y017353D01*
X010260Y017511D02*
X011141Y017511D01*
X010960Y017670D02*
X010260Y017670D01*
X010260Y017828D02*
X010802Y017828D01*
X010643Y017987D02*
X010260Y017987D01*
X010260Y018145D02*
X010511Y018145D01*
X010490Y018304D02*
X010260Y018304D01*
X010260Y018462D02*
X010490Y018462D01*
X010490Y018621D02*
X010357Y018621D01*
X010750Y018748D02*
X010750Y018248D01*
X011250Y017748D01*
X012250Y017748D01*
X013000Y016998D01*
X014000Y016998D01*
X015750Y015248D01*
X016000Y015248D01*
X016262Y014975D02*
X019071Y014975D01*
X019071Y014817D02*
X014834Y014817D01*
X014878Y014975D02*
X015738Y014975D01*
X015496Y015134D02*
X014853Y015134D01*
X014740Y015292D02*
X015338Y015292D01*
X015179Y015451D02*
X011760Y015451D01*
X011760Y015609D02*
X015021Y015609D01*
X014862Y015768D02*
X011760Y015768D01*
X011760Y015926D02*
X014704Y015926D01*
X014545Y016085D02*
X011760Y016085D01*
X011760Y016243D02*
X014387Y016243D01*
X014228Y016402D02*
X011760Y016402D01*
X011854Y016560D02*
X014070Y016560D01*
X013911Y016719D02*
X011960Y016719D01*
X012094Y016877D02*
X012753Y016877D01*
X012594Y017036D02*
X012321Y017036D01*
X012378Y017194D02*
X012436Y017194D01*
X012854Y017511D02*
X014119Y017511D01*
X013998Y017632D02*
X015603Y016027D01*
X015698Y015988D01*
X015975Y015988D01*
X016036Y015927D01*
X016175Y015869D01*
X016325Y015869D01*
X016464Y015927D01*
X016571Y016033D01*
X016628Y016172D01*
X016628Y016323D01*
X016571Y016462D01*
X016464Y016568D01*
X016325Y016626D01*
X016175Y016626D01*
X016036Y016568D01*
X015975Y016508D01*
X015858Y016508D01*
X014326Y018040D01*
X014253Y018113D01*
X014157Y018152D01*
X013985Y018152D01*
X013925Y018213D01*
X013786Y018270D01*
X013635Y018270D01*
X013496Y018213D01*
X013390Y018106D01*
X013333Y017967D01*
X013333Y017817D01*
X013390Y017678D01*
X013496Y017572D01*
X013635Y017514D01*
X013786Y017514D01*
X013925Y017572D01*
X013985Y017632D01*
X013998Y017632D01*
X014105Y017892D02*
X013711Y017892D01*
X013429Y018145D02*
X012367Y018145D01*
X012378Y018304D02*
X019071Y018304D01*
X019071Y018462D02*
X012320Y018462D01*
X012000Y018248D02*
X011500Y018248D01*
X011250Y018498D01*
X010750Y018748D02*
X010250Y019248D01*
X009750Y019248D01*
X009500Y018998D01*
X009048Y019413D02*
X008980Y019413D01*
X008980Y019572D02*
X009206Y019572D01*
X009382Y019730D02*
X008980Y019730D01*
X008075Y018884D02*
X008075Y018595D01*
X010260Y017194D02*
X011622Y017194D01*
X011546Y017036D02*
X010260Y017036D01*
X010260Y016877D02*
X011441Y016877D01*
X011335Y016719D02*
X010260Y016719D01*
X010260Y016560D02*
X011244Y016560D01*
X011240Y016402D02*
X010260Y016402D01*
X010260Y016243D02*
X011240Y016243D01*
X011240Y016085D02*
X010260Y016085D01*
X010260Y015926D02*
X011240Y015926D01*
X011240Y015768D02*
X010260Y015768D01*
X010260Y015609D02*
X011240Y015609D01*
X011240Y015451D02*
X010260Y015451D01*
X010260Y015292D02*
X011240Y015292D01*
X011240Y015134D02*
X010260Y015134D01*
X010260Y014975D02*
X011240Y014975D01*
X011240Y014817D02*
X010260Y014817D01*
X010260Y014658D02*
X011240Y014658D01*
X011240Y014500D02*
X010260Y014500D01*
X010260Y014341D02*
X011240Y014341D01*
X011240Y014183D02*
X010260Y014183D01*
X010260Y014024D02*
X011240Y014024D01*
X011240Y013866D02*
X010260Y013866D01*
X010260Y013707D02*
X011240Y013707D01*
X011240Y013549D02*
X010260Y013549D01*
X010260Y013390D02*
X011240Y013390D01*
X011240Y013232D02*
X010260Y013232D01*
X010292Y013073D02*
X011307Y013073D01*
X011465Y012915D02*
X010451Y012915D01*
X010609Y012756D02*
X011624Y012756D01*
X011782Y012598D02*
X010768Y012598D01*
X010926Y012439D02*
X011941Y012439D01*
X012099Y012281D02*
X011085Y012281D01*
X011243Y012122D02*
X012643Y012122D01*
X012749Y011964D02*
X011402Y011964D01*
X012201Y012915D02*
X012625Y012915D01*
X013000Y012998D02*
X014500Y014498D01*
X014500Y014998D01*
X014147Y015134D02*
X011760Y015134D01*
X011760Y015292D02*
X014260Y015292D01*
X014122Y014975D02*
X011760Y014975D01*
X011760Y014817D02*
X014166Y014817D01*
X014240Y014658D02*
X011760Y014658D01*
X011760Y014500D02*
X014134Y014500D01*
X013976Y014341D02*
X011760Y014341D01*
X011760Y014183D02*
X013817Y014183D01*
X013659Y014024D02*
X011760Y014024D01*
X011760Y013866D02*
X013500Y013866D01*
X013342Y013707D02*
X011760Y013707D01*
X011760Y013549D02*
X013183Y013549D01*
X013025Y013390D02*
X011760Y013390D01*
X013443Y013073D02*
X013543Y013073D01*
X013602Y013232D02*
X013702Y013232D01*
X013760Y013390D02*
X013860Y013390D01*
X013919Y013549D02*
X014019Y013549D01*
X014077Y013707D02*
X014177Y013707D01*
X014236Y013866D02*
X014336Y013866D01*
X014394Y014024D02*
X015492Y014024D01*
X015750Y013748D02*
X014586Y013748D01*
X014553Y014183D02*
X019071Y014183D01*
X019071Y014341D02*
X014711Y014341D01*
X014760Y014500D02*
X019071Y014500D01*
X019071Y014658D02*
X014760Y014658D01*
X016008Y014024D02*
X019071Y014024D01*
X019071Y013866D02*
X016110Y013866D01*
X016128Y013707D02*
X019071Y013707D01*
X019071Y013549D02*
X016984Y013549D01*
X016516Y013549D02*
X016077Y013549D01*
X016362Y015134D02*
X019071Y015134D01*
X019071Y015292D02*
X016378Y015292D01*
X016325Y015451D02*
X019071Y015451D01*
X019071Y015609D02*
X016115Y015609D01*
X015885Y015609D02*
X015756Y015609D01*
X015598Y015768D02*
X019071Y015768D01*
X019071Y015926D02*
X016462Y015926D01*
X016592Y016085D02*
X019071Y016085D01*
X019071Y016243D02*
X016628Y016243D01*
X016595Y016402D02*
X019071Y016402D01*
X019071Y016560D02*
X016472Y016560D01*
X016250Y016248D02*
X015750Y016248D01*
X014105Y017892D01*
X014174Y018145D02*
X019071Y018145D01*
X019071Y017987D02*
X014379Y017987D01*
X014537Y017828D02*
X019071Y017828D01*
X019071Y017670D02*
X014696Y017670D01*
X014854Y017511D02*
X019071Y017511D01*
X019071Y017353D02*
X015013Y017353D01*
X015171Y017194D02*
X019071Y017194D01*
X019071Y017036D02*
X015330Y017036D01*
X015488Y016877D02*
X019071Y016877D01*
X019071Y016719D02*
X015647Y016719D01*
X015805Y016560D02*
X016028Y016560D01*
X015387Y016243D02*
X015122Y016243D01*
X015228Y016402D02*
X014964Y016402D01*
X015070Y016560D02*
X014805Y016560D01*
X014911Y016719D02*
X014647Y016719D01*
X014753Y016877D02*
X014488Y016877D01*
X014594Y017036D02*
X014330Y017036D01*
X014436Y017194D02*
X014171Y017194D01*
X014277Y017353D02*
X013013Y017353D01*
X012696Y017670D02*
X013399Y017670D01*
X013333Y017828D02*
X012537Y017828D01*
X012352Y017987D02*
X013340Y017987D01*
X014192Y019572D02*
X019071Y019572D01*
X019071Y019730D02*
X014350Y019730D01*
X014509Y019889D02*
X019071Y019889D01*
X019071Y020047D02*
X014667Y020047D01*
X014826Y020206D02*
X019071Y020206D01*
X019071Y020364D02*
X014984Y020364D01*
X015143Y020523D02*
X019071Y020523D01*
X019071Y020681D02*
X015301Y020681D01*
X015460Y020840D02*
X019071Y020840D01*
X019071Y020998D02*
X015785Y020998D01*
X015872Y021157D02*
X019071Y021157D01*
X019071Y021315D02*
X015878Y021315D01*
X015809Y021474D02*
X019071Y021474D01*
X019071Y021632D02*
X001111Y021632D01*
X001111Y021791D02*
X019071Y021791D01*
X019071Y021949D02*
X001111Y021949D01*
X001111Y022108D02*
X019071Y022108D01*
X019071Y022266D02*
X001111Y022266D01*
X001111Y022425D02*
X019071Y022425D01*
X019071Y022583D02*
X001111Y022583D01*
X001111Y022742D02*
X019071Y022742D01*
X019071Y022900D02*
X001111Y022900D01*
X001111Y023059D02*
X019071Y023059D01*
X018817Y023217D02*
X018183Y023217D01*
X018420Y023376D02*
X018580Y023376D01*
X017817Y023217D02*
X017183Y023217D01*
X017420Y023376D02*
X017580Y023376D01*
X016817Y023217D02*
X016183Y023217D01*
X016420Y023376D02*
X016580Y023376D01*
X015817Y023217D02*
X015183Y023217D01*
X015420Y023376D02*
X015580Y023376D01*
X014817Y023217D02*
X014183Y023217D01*
X014420Y023376D02*
X014580Y023376D01*
X013817Y023217D02*
X013183Y023217D01*
X013420Y023376D02*
X013580Y023376D01*
X012817Y023217D02*
X012183Y023217D01*
X012420Y023376D02*
X012580Y023376D01*
X011817Y023217D02*
X010583Y023217D01*
X010820Y023376D02*
X011580Y023376D01*
X011482Y023534D02*
X010918Y023534D01*
X010960Y023693D02*
X011440Y023693D01*
X011440Y023851D02*
X010960Y023851D01*
X010898Y024010D02*
X011502Y024010D01*
X011629Y024168D02*
X010771Y024168D01*
X009980Y023376D02*
X009820Y023376D01*
X009583Y023217D02*
X010217Y023217D01*
X009217Y023217D02*
X008583Y023217D01*
X008820Y023376D02*
X008980Y023376D01*
X008217Y023217D02*
X007583Y023217D01*
X007820Y023376D02*
X007980Y023376D01*
X007217Y023217D02*
X006583Y023217D01*
X006820Y023376D02*
X006980Y023376D01*
X006217Y023217D02*
X005583Y023217D01*
X005820Y023376D02*
X005980Y023376D01*
X005217Y023217D02*
X003583Y023217D01*
X003820Y023376D02*
X004980Y023376D01*
X004882Y023534D02*
X003918Y023534D01*
X003960Y023693D02*
X004840Y023693D01*
X004840Y023851D02*
X003960Y023851D01*
X003898Y024010D02*
X004902Y024010D01*
X005029Y024168D02*
X003771Y024168D01*
X002980Y023376D02*
X002820Y023376D01*
X002583Y023217D02*
X003217Y023217D01*
X002217Y023217D02*
X001583Y023217D01*
X001820Y023376D02*
X001980Y023376D01*
X001217Y023217D02*
X001111Y023217D01*
X015281Y016085D02*
X015545Y016085D01*
X015439Y015926D02*
X016038Y015926D01*
X019500Y016248D02*
X020500Y016248D01*
X020750Y016498D01*
X020750Y017498D01*
X021750Y018498D01*
X044000Y018498D01*
X046250Y015998D01*
X038750Y015998D02*
X036750Y017998D01*
X022000Y017998D01*
X021250Y017248D01*
X021250Y015498D01*
X021000Y015248D01*
X019500Y015248D01*
X019500Y014248D02*
X021250Y014248D01*
X021750Y014748D01*
X021750Y016998D01*
X022250Y017498D01*
X029000Y017498D01*
X031000Y015498D01*
X022750Y013498D02*
X022500Y013248D01*
X019500Y013248D01*
X019500Y017248D02*
X022250Y019998D01*
X022250Y020998D01*
X023250Y021998D01*
X021000Y020498D02*
X021000Y024498D01*
X022000Y026748D01*
X036500Y026748D01*
X038500Y024748D01*
X043750Y027248D02*
X046000Y024748D01*
X043750Y027248D02*
X021500Y027248D01*
X020500Y024748D01*
X020500Y020748D01*
X020000Y020248D01*
X019500Y020248D01*
X019750Y019248D02*
X021000Y020498D01*
X021500Y019998D02*
X021500Y024248D01*
X022250Y026248D01*
X029500Y026248D01*
X031000Y024748D01*
X021500Y019998D02*
X019750Y018248D01*
X019500Y018248D01*
X019500Y019248D02*
X019750Y019248D01*
X018609Y005148D02*
X018391Y005148D01*
X017609Y005148D02*
X017391Y005148D01*
X016609Y005148D02*
X016391Y005148D01*
X015609Y005148D02*
X015391Y005148D01*
X014609Y005148D02*
X014391Y005148D01*
X013609Y005148D02*
X012391Y005148D01*
X012506Y004990D02*
X013494Y004990D01*
X013440Y004831D02*
X012560Y004831D01*
X012560Y004673D02*
X013440Y004673D01*
X013491Y004514D02*
X012509Y004514D01*
X012400Y004356D02*
X013600Y004356D01*
X011600Y004356D02*
X009400Y004356D01*
X009509Y004514D02*
X011491Y004514D01*
X011440Y004673D02*
X009560Y004673D01*
X009560Y004831D02*
X011440Y004831D01*
X011494Y004990D02*
X009506Y004990D01*
X009391Y005148D02*
X011609Y005148D01*
X008609Y005148D02*
X008391Y005148D01*
X007609Y005148D02*
X007391Y005148D01*
X006609Y005148D02*
X006391Y005148D01*
X005609Y005148D02*
X005391Y005148D01*
D14*
X001419Y011071D03*
X010000Y011748D03*
X013000Y012248D03*
X013000Y012998D03*
X015750Y013748D03*
X016750Y013248D03*
X019500Y013248D03*
X019500Y012248D03*
X019500Y011248D03*
X019500Y010248D03*
X019500Y009248D03*
X017500Y011248D03*
X022750Y013498D03*
X019500Y014248D03*
X019500Y015248D03*
X019500Y016248D03*
X019500Y017248D03*
X019500Y018248D03*
X019500Y019248D03*
X019500Y020248D03*
X023250Y021998D03*
X031000Y024748D03*
X038500Y024748D03*
X046000Y024748D03*
X046250Y015998D03*
X038750Y015998D03*
X031000Y015498D03*
X016250Y016248D03*
X016000Y015248D03*
X014500Y014998D03*
X012000Y017248D03*
X012000Y018248D03*
X010000Y018748D03*
X009500Y018998D03*
X009000Y018248D03*
X008075Y018884D03*
X011500Y019748D03*
X011500Y020498D03*
X011750Y021248D03*
X013750Y021248D03*
X014500Y021248D03*
X015500Y021248D03*
X013711Y017892D03*
X001419Y016280D03*
X001419Y021489D03*
X023000Y006248D03*
X031000Y006498D03*
X038500Y006748D03*
X046000Y006748D03*
M02*
