G75*
G70*
%OFA0B0*%
%FSLAX24Y24*%
%IPPOS*%
%LPD*%
%AMOC8*
5,1,8,0,0,1.08239X$1,22.5*
%
%ADD10C,0.0760*%
%ADD11R,0.0087X0.0394*%
%ADD12R,0.0394X0.0087*%
%ADD13C,0.0600*%
%ADD14R,0.0433X0.0394*%
%ADD15R,0.0394X0.0433*%
%ADD16C,0.5118*%
%ADD17C,0.0700*%
%ADD18R,0.0394X0.0551*%
%ADD19R,0.0710X0.0630*%
%ADD20C,0.0160*%
%ADD21C,0.0396*%
%ADD22C,0.0240*%
D10*
X005000Y004748D03*
X006000Y004748D03*
X007000Y004748D03*
X008000Y004748D03*
X009000Y004748D03*
X010000Y004748D03*
X011000Y004748D03*
X012000Y004748D03*
X014000Y004748D03*
X015000Y004748D03*
X016000Y004748D03*
X017000Y004748D03*
X018000Y004748D03*
X019000Y004748D03*
X019000Y023748D03*
X018000Y023748D03*
X017000Y023748D03*
X016000Y023748D03*
X015000Y023748D03*
X014000Y023748D03*
X013000Y023748D03*
X012000Y023748D03*
X010400Y023748D03*
X009400Y023748D03*
X008400Y023748D03*
X007400Y023748D03*
X006400Y023748D03*
X005400Y023748D03*
X004400Y023748D03*
X003400Y023748D03*
X002400Y023748D03*
X001400Y023748D03*
D11*
X008524Y017011D03*
X008720Y017011D03*
X008917Y017011D03*
X009114Y017011D03*
X009311Y017011D03*
X009508Y017011D03*
X009705Y017011D03*
X009902Y017011D03*
X010098Y017011D03*
X010295Y017011D03*
X010492Y017011D03*
X010689Y017011D03*
X010886Y017011D03*
X011083Y017011D03*
X011280Y017011D03*
X011476Y017011D03*
X011476Y012484D03*
X011280Y012484D03*
X011083Y012484D03*
X010886Y012484D03*
X010689Y012484D03*
X010492Y012484D03*
X010295Y012484D03*
X010098Y012484D03*
X009902Y012484D03*
X009705Y012484D03*
X009508Y012484D03*
X009311Y012484D03*
X009114Y012484D03*
X008917Y012484D03*
X008720Y012484D03*
X008524Y012484D03*
D12*
X007736Y013271D03*
X007736Y013468D03*
X007736Y013665D03*
X007736Y013862D03*
X007736Y014059D03*
X007736Y014255D03*
X007736Y014452D03*
X007736Y014649D03*
X007736Y014846D03*
X007736Y015043D03*
X007736Y015240D03*
X007736Y015437D03*
X007736Y015633D03*
X007736Y015830D03*
X007736Y016027D03*
X007736Y016224D03*
X012264Y016224D03*
X012264Y016027D03*
X012264Y015830D03*
X012264Y015633D03*
X012264Y015437D03*
X012264Y015240D03*
X012264Y015043D03*
X012264Y014846D03*
X012264Y014649D03*
X012264Y014452D03*
X012264Y014255D03*
X012264Y014059D03*
X012264Y013862D03*
X012264Y013665D03*
X012264Y013468D03*
X012264Y013271D03*
D13*
X008500Y019448D02*
X008500Y020048D01*
X007500Y020048D02*
X007500Y019448D01*
X006500Y019448D02*
X006500Y020048D01*
X005500Y020048D02*
X005500Y019448D01*
X004500Y019448D02*
X004500Y020048D01*
D14*
X006665Y017248D03*
X007335Y017248D03*
X012665Y017248D03*
X013335Y017248D03*
X013665Y016248D03*
X014335Y016248D03*
X014335Y013748D03*
X013665Y013748D03*
X013665Y012498D03*
X014335Y012498D03*
X014335Y011248D03*
X013665Y011248D03*
X011158Y011216D03*
X010489Y011216D03*
X007335Y012248D03*
X006665Y012248D03*
X005500Y012913D03*
X005500Y013582D03*
X008750Y009332D03*
X008750Y008663D03*
X009750Y008663D03*
X009750Y009332D03*
X010750Y009332D03*
X010750Y008663D03*
X011750Y008663D03*
X011750Y009332D03*
X013665Y018998D03*
X014335Y018998D03*
X014000Y021913D03*
X014000Y022582D03*
X013000Y022582D03*
X013000Y021913D03*
X015000Y021913D03*
X015000Y022582D03*
X016000Y022582D03*
X016000Y021913D03*
X017000Y021913D03*
X017000Y022582D03*
X010500Y022582D03*
X010500Y021913D03*
D15*
X018165Y020248D03*
X018835Y020248D03*
X018835Y019248D03*
X018165Y019248D03*
X018165Y018248D03*
X018835Y018248D03*
X018835Y017248D03*
X018165Y017248D03*
X018165Y016248D03*
X018835Y016248D03*
X018835Y015248D03*
X018165Y015248D03*
X018165Y014248D03*
X018835Y014248D03*
X018835Y013248D03*
X018165Y013248D03*
X018165Y012248D03*
X018835Y012248D03*
X018835Y011248D03*
X018165Y011248D03*
X018165Y010248D03*
X018835Y010248D03*
X018835Y009248D03*
X018165Y009248D03*
D16*
X025000Y005248D03*
X032500Y005248D03*
X040000Y005248D03*
X047500Y005248D03*
X047500Y014248D03*
X040000Y014248D03*
X032500Y014248D03*
X025000Y014248D03*
X025000Y023248D03*
X032500Y023248D03*
X040000Y023248D03*
X047500Y023248D03*
D17*
X005280Y008748D03*
X002720Y008748D03*
D18*
X004000Y011814D03*
X003626Y012681D03*
X004374Y012681D03*
D19*
X008750Y007557D03*
X009750Y007557D03*
X010750Y007557D03*
X011750Y007557D03*
X011750Y006438D03*
X010750Y006438D03*
X009750Y006438D03*
X008750Y006438D03*
D20*
X001111Y004252D02*
X001111Y023261D01*
X001289Y023188D01*
X001511Y023188D01*
X001717Y023273D01*
X001875Y023430D01*
X001900Y023491D01*
X001925Y023430D01*
X002083Y023273D01*
X002289Y023188D01*
X002511Y023188D01*
X002717Y023273D01*
X002875Y023430D01*
X002900Y023491D01*
X002925Y023430D01*
X003083Y023273D01*
X003289Y023188D01*
X003511Y023188D01*
X003717Y023273D01*
X003875Y023430D01*
X003960Y023636D01*
X003960Y023859D01*
X003875Y024065D01*
X003717Y024222D01*
X003635Y024256D01*
X005165Y024256D01*
X005083Y024222D01*
X004925Y024065D01*
X004840Y023859D01*
X004840Y023636D01*
X004925Y023430D01*
X005083Y023273D01*
X005289Y023188D01*
X005511Y023188D01*
X005717Y023273D01*
X005875Y023430D01*
X005900Y023491D01*
X005925Y023430D01*
X006083Y023273D01*
X006289Y023188D01*
X006511Y023188D01*
X006717Y023273D01*
X006875Y023430D01*
X006900Y023491D01*
X006925Y023430D01*
X007083Y023273D01*
X007289Y023188D01*
X007511Y023188D01*
X007717Y023273D01*
X007875Y023430D01*
X007900Y023491D01*
X007925Y023430D01*
X008083Y023273D01*
X008289Y023188D01*
X008511Y023188D01*
X008717Y023273D01*
X008875Y023430D01*
X008900Y023491D01*
X008925Y023430D01*
X009083Y023273D01*
X009289Y023188D01*
X009511Y023188D01*
X009717Y023273D01*
X009875Y023430D01*
X009900Y023491D01*
X009925Y023430D01*
X010083Y023273D01*
X010140Y023249D01*
X010140Y022890D01*
X010103Y022854D01*
X010103Y022508D01*
X002448Y022508D01*
X002353Y022468D01*
X002280Y022395D01*
X001780Y021895D01*
X001740Y021799D01*
X001740Y015196D01*
X001780Y015100D01*
X002845Y014035D01*
X002940Y013995D01*
X007375Y013995D01*
X007359Y013980D01*
X007359Y013925D01*
X005825Y013925D01*
X005791Y013959D01*
X005209Y013959D01*
X005103Y013854D01*
X005103Y013311D01*
X005167Y013248D01*
X005103Y013184D01*
X005103Y013173D01*
X004555Y013173D01*
X004466Y013136D01*
X004103Y013136D01*
X003997Y013031D01*
X003997Y012330D01*
X004058Y012270D01*
X003729Y012270D01*
X003623Y012165D01*
X003623Y011464D01*
X003729Y011359D01*
X003740Y011359D01*
X003740Y010135D01*
X002866Y009261D01*
X002826Y009278D01*
X002615Y009278D01*
X002420Y009197D01*
X002271Y009048D01*
X002190Y008853D01*
X002190Y008642D01*
X002271Y008447D01*
X002420Y008298D01*
X002615Y008218D01*
X002826Y008218D01*
X003021Y008298D01*
X003170Y008447D01*
X003250Y008642D01*
X003250Y008853D01*
X003234Y008893D01*
X004220Y009880D01*
X004260Y009975D01*
X004260Y011359D01*
X004271Y011359D01*
X004377Y011464D01*
X004377Y012165D01*
X004316Y012225D01*
X004645Y012225D01*
X004751Y012330D01*
X004751Y012653D01*
X005103Y012653D01*
X005103Y012642D01*
X005209Y012536D01*
X005791Y012536D01*
X005897Y012642D01*
X005897Y013184D01*
X005833Y013248D01*
X005897Y013311D01*
X005897Y013405D01*
X007040Y013405D01*
X007030Y013395D01*
X006990Y013299D01*
X006990Y012571D01*
X006938Y012519D01*
X006938Y012219D01*
X006780Y012060D01*
X006740Y011965D01*
X006740Y009008D01*
X005745Y009008D01*
X005729Y009048D01*
X005580Y009197D01*
X005385Y009278D01*
X005174Y009278D01*
X004979Y009197D01*
X004830Y009048D01*
X004750Y008853D01*
X004750Y008642D01*
X004830Y008447D01*
X004979Y008298D01*
X005174Y008218D01*
X005385Y008218D01*
X005580Y008298D01*
X005729Y008447D01*
X005745Y008488D01*
X006892Y008488D01*
X007740Y007640D01*
X007740Y005246D01*
X007683Y005222D01*
X007525Y005065D01*
X007500Y005004D01*
X007475Y005065D01*
X007317Y005222D01*
X007111Y005308D01*
X006889Y005308D01*
X006683Y005222D01*
X006525Y005065D01*
X006500Y005004D01*
X006475Y005065D01*
X006317Y005222D01*
X006111Y005308D01*
X005889Y005308D01*
X005683Y005222D01*
X005525Y005065D01*
X005500Y005004D01*
X005475Y005065D01*
X005317Y005222D01*
X005111Y005308D01*
X004889Y005308D01*
X004683Y005222D01*
X004525Y005065D01*
X004440Y004859D01*
X004440Y004636D01*
X004525Y004430D01*
X004683Y004273D01*
X004732Y004252D01*
X001111Y004252D01*
X001111Y004356D02*
X004600Y004356D01*
X004491Y004514D02*
X001111Y004514D01*
X001111Y004673D02*
X004440Y004673D01*
X004440Y004831D02*
X001111Y004831D01*
X001111Y004990D02*
X004494Y004990D01*
X004609Y005148D02*
X001111Y005148D01*
X001111Y005307D02*
X004886Y005307D01*
X005114Y005307D02*
X005886Y005307D01*
X006114Y005307D02*
X006886Y005307D01*
X007114Y005307D02*
X007740Y005307D01*
X007740Y005465D02*
X001111Y005465D01*
X001111Y005624D02*
X007740Y005624D01*
X007740Y005782D02*
X001111Y005782D01*
X001111Y005941D02*
X007740Y005941D01*
X007740Y006099D02*
X001111Y006099D01*
X001111Y006258D02*
X007740Y006258D01*
X007740Y006416D02*
X001111Y006416D01*
X001111Y006575D02*
X007740Y006575D01*
X007740Y006733D02*
X001111Y006733D01*
X001111Y006892D02*
X007740Y006892D01*
X007740Y007050D02*
X001111Y007050D01*
X001111Y007209D02*
X007740Y007209D01*
X007740Y007367D02*
X001111Y007367D01*
X001111Y007526D02*
X007740Y007526D01*
X007696Y007684D02*
X001111Y007684D01*
X001111Y007843D02*
X007537Y007843D01*
X007379Y008001D02*
X001111Y008001D01*
X001111Y008160D02*
X007220Y008160D01*
X007062Y008318D02*
X005600Y008318D01*
X005741Y008477D02*
X006903Y008477D01*
X007000Y008748D02*
X007000Y011913D01*
X007335Y012248D01*
X007250Y012332D01*
X007250Y013248D01*
X007274Y013271D01*
X007736Y013271D01*
X007736Y013468D02*
X006970Y013468D01*
X006750Y013248D01*
X006750Y012332D01*
X006665Y012248D01*
X006841Y012122D02*
X004377Y012122D01*
X004377Y011964D02*
X006740Y011964D01*
X006740Y011805D02*
X004377Y011805D01*
X004377Y011647D02*
X006740Y011647D01*
X006740Y011488D02*
X004377Y011488D01*
X004260Y011330D02*
X006740Y011330D01*
X006740Y011171D02*
X004260Y011171D01*
X004260Y011013D02*
X006740Y011013D01*
X006740Y010854D02*
X004260Y010854D01*
X004260Y010696D02*
X006740Y010696D01*
X006740Y010537D02*
X004260Y010537D01*
X004260Y010379D02*
X006740Y010379D01*
X006740Y010220D02*
X004260Y010220D01*
X004260Y010062D02*
X006740Y010062D01*
X006740Y009903D02*
X004230Y009903D01*
X004085Y009745D02*
X006740Y009745D01*
X006740Y009586D02*
X003927Y009586D01*
X003768Y009428D02*
X006740Y009428D01*
X006740Y009269D02*
X005405Y009269D01*
X005154Y009269D02*
X003610Y009269D01*
X003451Y009111D02*
X004893Y009111D01*
X004791Y008952D02*
X003293Y008952D01*
X003250Y008794D02*
X004750Y008794D01*
X004752Y008635D02*
X003248Y008635D01*
X003182Y008477D02*
X004818Y008477D01*
X004959Y008318D02*
X003041Y008318D01*
X002720Y008748D02*
X004000Y010027D01*
X004000Y011814D01*
X003623Y011805D02*
X001111Y011805D01*
X001111Y011647D02*
X003623Y011647D01*
X003623Y011488D02*
X001111Y011488D01*
X001111Y011330D02*
X003740Y011330D01*
X003740Y011171D02*
X001111Y011171D01*
X001111Y011013D02*
X003740Y011013D01*
X003740Y010854D02*
X001111Y010854D01*
X001111Y010696D02*
X003740Y010696D01*
X003740Y010537D02*
X001111Y010537D01*
X001111Y010379D02*
X003740Y010379D01*
X003740Y010220D02*
X001111Y010220D01*
X001111Y010062D02*
X003667Y010062D01*
X003508Y009903D02*
X001111Y009903D01*
X001111Y009745D02*
X003350Y009745D01*
X003191Y009586D02*
X001111Y009586D01*
X001111Y009428D02*
X003033Y009428D01*
X002874Y009269D02*
X002846Y009269D01*
X002595Y009269D02*
X001111Y009269D01*
X001111Y009111D02*
X002334Y009111D01*
X002232Y008952D02*
X001111Y008952D01*
X001111Y008794D02*
X002190Y008794D01*
X002193Y008635D02*
X001111Y008635D01*
X001111Y008477D02*
X002259Y008477D01*
X002400Y008318D02*
X001111Y008318D01*
X005280Y008748D02*
X007000Y008748D01*
X008000Y007748D01*
X008000Y004748D01*
X008500Y005004D02*
X008475Y005065D01*
X008317Y005222D01*
X008260Y005246D01*
X008260Y007123D01*
X008321Y007062D01*
X009179Y007062D01*
X009250Y007133D01*
X009321Y007062D01*
X010179Y007062D01*
X010250Y007133D01*
X010321Y007062D01*
X011179Y007062D01*
X011250Y007133D01*
X011321Y007062D01*
X012179Y007062D01*
X012285Y007168D01*
X012285Y007947D01*
X012179Y008052D01*
X012010Y008052D01*
X012010Y008286D01*
X012041Y008286D01*
X012147Y008392D01*
X012147Y008934D01*
X012083Y008998D01*
X012147Y009061D01*
X012147Y009604D01*
X012041Y009709D01*
X011741Y009709D01*
X010611Y010839D01*
X010780Y010839D01*
X010886Y010945D01*
X010886Y011487D01*
X010780Y011593D01*
X010480Y011593D01*
X010378Y011695D01*
X010378Y011823D01*
X010321Y011962D01*
X010214Y012068D01*
X010120Y012107D01*
X010610Y012107D01*
X010689Y012186D01*
X010768Y012107D01*
X010825Y012107D01*
X010862Y012018D01*
X011280Y011600D01*
X011353Y011527D01*
X011448Y011488D01*
X011892Y011488D01*
X012353Y011027D01*
X012448Y010988D01*
X013269Y010988D01*
X013269Y010976D01*
X013374Y010871D01*
X013740Y010871D01*
X013740Y010446D01*
X013780Y010350D01*
X013853Y010277D01*
X015103Y009027D01*
X015198Y008988D01*
X017789Y008988D01*
X017789Y008956D01*
X017894Y008851D01*
X018437Y008851D01*
X018500Y008914D01*
X018563Y008851D01*
X019106Y008851D01*
X019211Y008956D01*
X019211Y008988D01*
X019225Y008988D01*
X019286Y008927D01*
X019425Y008869D01*
X019575Y008869D01*
X019714Y008927D01*
X019821Y009033D01*
X019878Y009172D01*
X019878Y009323D01*
X019821Y009462D01*
X019714Y009568D01*
X019575Y009626D01*
X019425Y009626D01*
X019286Y009568D01*
X019225Y009508D01*
X019211Y009508D01*
X019211Y009539D01*
X019106Y009644D01*
X018563Y009644D01*
X018500Y009581D01*
X018437Y009644D01*
X017894Y009644D01*
X017789Y009539D01*
X017789Y009508D01*
X015358Y009508D01*
X014260Y010605D01*
X014260Y011549D01*
X014220Y011645D01*
X013970Y011895D01*
X013897Y011968D01*
X013802Y012008D01*
X013295Y012008D01*
X013321Y012033D01*
X013362Y012133D01*
X013374Y012121D01*
X013956Y012121D01*
X014062Y012226D01*
X014062Y012769D01*
X013956Y012874D01*
X013440Y012874D01*
X013431Y012883D01*
X013372Y012908D01*
X013378Y012922D01*
X013378Y013073D01*
X014740Y013073D01*
X014740Y012915D02*
X013375Y012915D01*
X013378Y013073D02*
X013321Y013212D01*
X013260Y013272D01*
X013260Y013299D01*
X013220Y013395D01*
X013124Y013492D01*
X013028Y013531D01*
X012625Y013531D01*
X012641Y013547D01*
X012641Y013602D01*
X013269Y013602D01*
X013269Y013476D01*
X013374Y013371D01*
X013956Y013371D01*
X014062Y013476D01*
X014062Y013988D01*
X014642Y013988D01*
X014740Y013890D01*
X014740Y010946D01*
X014780Y010850D01*
X015530Y010100D01*
X015603Y010027D01*
X015698Y009988D01*
X017789Y009988D01*
X017789Y009956D01*
X017894Y009851D01*
X018437Y009851D01*
X018500Y009914D01*
X018563Y009851D01*
X019106Y009851D01*
X019211Y009956D01*
X019211Y009988D01*
X019225Y009988D01*
X019286Y009927D01*
X019425Y009869D01*
X019575Y009869D01*
X019714Y009927D01*
X019821Y010033D01*
X019878Y010172D01*
X019878Y010323D01*
X019821Y010462D01*
X019714Y010568D01*
X019575Y010626D01*
X019425Y010626D01*
X019286Y010568D01*
X019225Y010508D01*
X019211Y010508D01*
X019211Y010539D01*
X019106Y010644D01*
X018563Y010644D01*
X018500Y010581D01*
X018437Y010644D01*
X017894Y010644D01*
X017789Y010539D01*
X017789Y010508D01*
X015858Y010508D01*
X015260Y011105D01*
X015260Y014049D01*
X015220Y014145D01*
X015147Y014218D01*
X015128Y014238D01*
X016892Y014238D01*
X017103Y014027D01*
X017198Y013988D01*
X017789Y013988D01*
X017789Y013956D01*
X017894Y013851D01*
X018437Y013851D01*
X018500Y013914D01*
X018563Y013851D01*
X019106Y013851D01*
X019211Y013956D01*
X019211Y013988D01*
X019225Y013988D01*
X019286Y013927D01*
X019425Y013869D01*
X019575Y013869D01*
X019714Y013927D01*
X019821Y014033D01*
X019878Y014172D01*
X019878Y014323D01*
X019821Y014462D01*
X019714Y014568D01*
X019575Y014626D01*
X019425Y014626D01*
X019286Y014568D01*
X019225Y014508D01*
X019211Y014508D01*
X019211Y014539D01*
X019106Y014644D01*
X018563Y014644D01*
X018500Y014581D01*
X018437Y014644D01*
X017894Y014644D01*
X017789Y014539D01*
X017789Y014508D01*
X017358Y014508D01*
X017147Y014718D01*
X017052Y014758D01*
X014795Y014758D01*
X014821Y014783D01*
X014878Y014922D01*
X014878Y015008D01*
X015470Y015600D01*
X015510Y015696D01*
X015510Y016390D01*
X016108Y016988D01*
X017789Y016988D01*
X017789Y016956D01*
X017894Y016851D01*
X018437Y016851D01*
X018500Y016914D01*
X018563Y016851D01*
X019106Y016851D01*
X019211Y016956D01*
X019211Y016988D01*
X019225Y016988D01*
X019286Y016927D01*
X019425Y016869D01*
X019575Y016869D01*
X019714Y016927D01*
X019821Y017033D01*
X019878Y017172D01*
X019878Y017323D01*
X019821Y017462D01*
X019714Y017568D01*
X019575Y017626D01*
X019425Y017626D01*
X019286Y017568D01*
X019225Y017508D01*
X019211Y017508D01*
X019211Y017539D01*
X019106Y017644D01*
X018563Y017644D01*
X018500Y017581D01*
X018437Y017644D01*
X017894Y017644D01*
X017789Y017539D01*
X017789Y017508D01*
X015948Y017508D01*
X015853Y017468D01*
X015103Y016718D01*
X015103Y016718D01*
X015030Y016645D01*
X014990Y016549D01*
X014990Y015855D01*
X014510Y015376D01*
X014425Y015376D01*
X014286Y015318D01*
X014260Y015292D01*
X014260Y016890D01*
X015358Y017988D01*
X017789Y017988D01*
X017789Y017956D01*
X017894Y017851D01*
X018437Y017851D01*
X018500Y017914D01*
X018563Y017851D01*
X019106Y017851D01*
X019211Y017956D01*
X019211Y017988D01*
X019225Y017988D01*
X019286Y017927D01*
X019425Y017869D01*
X019575Y017869D01*
X019714Y017927D01*
X019821Y018033D01*
X019878Y018172D01*
X019878Y018323D01*
X019821Y018462D01*
X019714Y018568D01*
X019575Y018626D01*
X019425Y018626D01*
X019286Y018568D01*
X019225Y018508D01*
X019211Y018508D01*
X019211Y018539D01*
X019106Y018644D01*
X018563Y018644D01*
X018500Y018581D01*
X018437Y018644D01*
X017894Y018644D01*
X017789Y018539D01*
X017789Y018508D01*
X015198Y018508D01*
X015103Y018468D01*
X013853Y017218D01*
X013780Y017145D01*
X013740Y017049D01*
X013740Y016624D01*
X013374Y016624D01*
X013269Y016519D01*
X013269Y016219D01*
X013140Y016090D01*
X012710Y016090D01*
X012897Y016277D01*
X012970Y016350D01*
X013010Y016446D01*
X013010Y016924D01*
X013062Y016976D01*
X013062Y017488D01*
X013066Y017488D01*
X013162Y017527D01*
X013246Y017612D01*
X013457Y017612D01*
X013496Y017572D01*
X013635Y017514D01*
X013786Y017514D01*
X013925Y017572D01*
X014031Y017678D01*
X014089Y017817D01*
X014089Y017967D01*
X014080Y017988D01*
X014435Y017988D01*
X014530Y018027D01*
X014951Y018448D01*
X014990Y018543D01*
X014990Y018921D01*
X015057Y018988D01*
X017789Y018988D01*
X017789Y018956D01*
X017894Y018851D01*
X018437Y018851D01*
X018500Y018914D01*
X018563Y018851D01*
X019106Y018851D01*
X019211Y018956D01*
X019211Y018988D01*
X019225Y018988D01*
X019286Y018927D01*
X019425Y018869D01*
X019575Y018869D01*
X019714Y018927D01*
X019821Y019033D01*
X019878Y019172D01*
X019878Y019323D01*
X019821Y019462D01*
X019714Y019568D01*
X019575Y019626D01*
X019425Y019626D01*
X019286Y019568D01*
X019225Y019508D01*
X019211Y019508D01*
X019211Y019539D01*
X019106Y019644D01*
X018563Y019644D01*
X018500Y019581D01*
X018437Y019644D01*
X017894Y019644D01*
X017789Y019539D01*
X017789Y019508D01*
X014897Y019508D01*
X014802Y019468D01*
X014728Y019395D01*
X014510Y019176D01*
X014470Y019081D01*
X014470Y018703D01*
X014275Y018508D01*
X014128Y018508D01*
X014220Y018600D01*
X014260Y018696D01*
X014260Y019390D01*
X014858Y019988D01*
X017789Y019988D01*
X017789Y019956D01*
X017894Y019851D01*
X018437Y019851D01*
X018500Y019914D01*
X018563Y019851D01*
X019106Y019851D01*
X019211Y019956D01*
X019211Y019988D01*
X019225Y019988D01*
X019286Y019927D01*
X019425Y019869D01*
X019575Y019869D01*
X019714Y019927D01*
X019821Y020033D01*
X019878Y020172D01*
X019878Y020323D01*
X019821Y020462D01*
X019714Y020568D01*
X019575Y020626D01*
X019425Y020626D01*
X019286Y020568D01*
X019225Y020508D01*
X019211Y020508D01*
X019211Y020539D01*
X019106Y020644D01*
X018563Y020644D01*
X018500Y020581D01*
X018437Y020644D01*
X017894Y020644D01*
X017789Y020539D01*
X017789Y020508D01*
X014698Y020508D01*
X014603Y020468D01*
X013780Y019645D01*
X013740Y019549D01*
X013740Y019374D01*
X013374Y019374D01*
X013269Y019269D01*
X013269Y019258D01*
X012128Y019258D01*
X012397Y019527D01*
X012470Y019600D01*
X012510Y019696D01*
X012510Y021055D01*
X012991Y021536D01*
X013291Y021536D01*
X013397Y021642D01*
X013397Y021988D01*
X013603Y021988D01*
X013603Y021642D01*
X013636Y021609D01*
X013536Y021568D01*
X013429Y021462D01*
X013372Y021323D01*
X013372Y021172D01*
X013429Y021033D01*
X013536Y020927D01*
X013675Y020869D01*
X013825Y020869D01*
X013964Y020927D01*
X014071Y021033D01*
X014125Y021165D01*
X014179Y021033D01*
X014286Y020927D01*
X014425Y020869D01*
X014575Y020869D01*
X014714Y020927D01*
X014821Y021033D01*
X014878Y021172D01*
X014878Y021323D01*
X014849Y021394D01*
X014991Y021536D01*
X015254Y021536D01*
X015179Y021462D01*
X015122Y021323D01*
X015122Y021172D01*
X015179Y021033D01*
X015286Y020927D01*
X015425Y020869D01*
X015575Y020869D01*
X015714Y020927D01*
X015821Y021033D01*
X015878Y021172D01*
X015878Y021323D01*
X015849Y021394D01*
X015991Y021536D01*
X016291Y021536D01*
X016397Y021642D01*
X016397Y021988D01*
X016558Y021988D01*
X016603Y021942D01*
X016603Y021642D01*
X016709Y021536D01*
X017291Y021536D01*
X017397Y021642D01*
X017397Y022184D01*
X017333Y022248D01*
X017397Y022311D01*
X017397Y022854D01*
X017291Y022959D01*
X017260Y022959D01*
X017260Y023249D01*
X017317Y023273D01*
X017475Y023430D01*
X017500Y023491D01*
X017525Y023430D01*
X017683Y023273D01*
X017889Y023188D01*
X018111Y023188D01*
X018317Y023273D01*
X018475Y023430D01*
X018500Y023491D01*
X018525Y023430D01*
X018683Y023273D01*
X018889Y023188D01*
X019111Y023188D01*
X019317Y023273D01*
X019475Y023430D01*
X019560Y023636D01*
X019560Y023859D01*
X019475Y024065D01*
X019317Y024222D01*
X019235Y024256D01*
X019844Y024256D01*
X019859Y024251D01*
X019955Y024256D01*
X020050Y024256D01*
X020065Y024263D01*
X020082Y024264D01*
X020084Y024265D01*
X020084Y004244D01*
X020082Y004245D01*
X020065Y004246D01*
X020050Y004252D01*
X019955Y004252D01*
X019859Y004258D01*
X019844Y004252D01*
X019268Y004252D01*
X019317Y004273D01*
X019475Y004430D01*
X019560Y004636D01*
X019560Y004859D01*
X019475Y005065D01*
X019317Y005222D01*
X019111Y005308D01*
X018889Y005308D01*
X018683Y005222D01*
X018525Y005065D01*
X018500Y005004D01*
X018475Y005065D01*
X018317Y005222D01*
X018111Y005308D01*
X017889Y005308D01*
X017683Y005222D01*
X017525Y005065D01*
X017500Y005004D01*
X017475Y005065D01*
X017317Y005222D01*
X017111Y005308D01*
X016889Y005308D01*
X016683Y005222D01*
X016525Y005065D01*
X016500Y005004D01*
X016475Y005065D01*
X016317Y005222D01*
X016111Y005308D01*
X015889Y005308D01*
X015683Y005222D01*
X015525Y005065D01*
X015500Y005004D01*
X015475Y005065D01*
X015317Y005222D01*
X015111Y005308D01*
X014889Y005308D01*
X014683Y005222D01*
X014525Y005065D01*
X014500Y005004D01*
X014475Y005065D01*
X014317Y005222D01*
X014111Y005308D01*
X013889Y005308D01*
X013683Y005222D01*
X013525Y005065D01*
X013440Y004859D01*
X013440Y004636D01*
X013525Y004430D01*
X013683Y004273D01*
X013732Y004252D01*
X012268Y004252D01*
X012317Y004273D01*
X012475Y004430D01*
X012560Y004636D01*
X012560Y004859D01*
X012475Y005065D01*
X012317Y005222D01*
X012111Y005308D01*
X011889Y005308D01*
X011683Y005222D01*
X011525Y005065D01*
X011440Y004859D01*
X011440Y004636D01*
X011525Y004430D01*
X011683Y004273D01*
X011732Y004252D01*
X009268Y004252D01*
X009317Y004273D01*
X009475Y004430D01*
X009560Y004636D01*
X009560Y004859D01*
X009475Y005065D01*
X009317Y005222D01*
X009111Y005308D01*
X008889Y005308D01*
X008683Y005222D01*
X008525Y005065D01*
X008500Y005004D01*
X008391Y005148D02*
X008609Y005148D01*
X008886Y005307D02*
X008260Y005307D01*
X008260Y005465D02*
X020084Y005465D01*
X020084Y005307D02*
X019114Y005307D01*
X018886Y005307D02*
X018114Y005307D01*
X017886Y005307D02*
X017114Y005307D01*
X016886Y005307D02*
X016114Y005307D01*
X015886Y005307D02*
X015114Y005307D01*
X014886Y005307D02*
X014114Y005307D01*
X013886Y005307D02*
X012114Y005307D01*
X011886Y005307D02*
X009114Y005307D01*
X009391Y005148D02*
X011609Y005148D01*
X011494Y004990D02*
X009506Y004990D01*
X009560Y004831D02*
X011440Y004831D01*
X011440Y004673D02*
X009560Y004673D01*
X009509Y004514D02*
X011491Y004514D01*
X011600Y004356D02*
X009400Y004356D01*
X010000Y004748D02*
X011000Y004748D01*
X010750Y004998D01*
X010750Y006438D01*
X011750Y006438D01*
X010750Y006438D02*
X009750Y006438D01*
X008750Y006438D01*
X008260Y006416D02*
X020084Y006416D01*
X020084Y006258D02*
X008260Y006258D01*
X008260Y006099D02*
X020084Y006099D01*
X020084Y005941D02*
X008260Y005941D01*
X008260Y005782D02*
X020084Y005782D01*
X020084Y005624D02*
X008260Y005624D01*
X007609Y005148D02*
X007391Y005148D01*
X006609Y005148D02*
X006391Y005148D01*
X005609Y005148D02*
X005391Y005148D01*
X008260Y006575D02*
X020084Y006575D01*
X020084Y006733D02*
X008260Y006733D01*
X008260Y006892D02*
X020084Y006892D01*
X020084Y007050D02*
X008260Y007050D01*
X008750Y007557D02*
X008750Y008663D01*
X008750Y009332D02*
X008720Y009362D01*
X008720Y012484D01*
X008524Y012484D02*
X008524Y013021D01*
X008554Y013052D01*
X008524Y013082D01*
X008524Y017011D01*
X008524Y017474D01*
X007000Y018998D01*
X007000Y020498D01*
X006750Y020748D01*
X005250Y020748D01*
X004500Y019998D01*
X004500Y019748D01*
X004500Y017748D01*
X005000Y017248D01*
X006665Y017248D01*
X007260Y017194D02*
X008264Y017194D01*
X008264Y017036D02*
X007260Y017036D01*
X007260Y016877D02*
X008264Y016877D01*
X008264Y016719D02*
X007260Y016719D01*
X007260Y016605D02*
X007260Y017799D01*
X007220Y017895D01*
X007147Y017968D01*
X006897Y018218D01*
X006802Y018258D01*
X006108Y018258D01*
X005760Y018605D01*
X005760Y019036D01*
X005772Y019041D01*
X005907Y019176D01*
X005980Y019352D01*
X005980Y020143D01*
X005907Y020319D01*
X005772Y020454D01*
X005692Y020488D01*
X006642Y020488D01*
X006740Y020390D01*
X006740Y018946D01*
X006780Y018850D01*
X006853Y018777D01*
X008264Y017366D01*
X008264Y012379D01*
X008142Y012258D01*
X007731Y012258D01*
X007731Y012519D01*
X007626Y012624D01*
X007510Y012624D01*
X007510Y013011D01*
X007788Y013011D01*
X007877Y013048D01*
X008008Y013048D01*
X008113Y013153D01*
X008113Y013389D01*
X008034Y013468D01*
X008113Y013547D01*
X008113Y013980D01*
X008034Y014059D01*
X008113Y014138D01*
X008113Y016342D01*
X008008Y016447D01*
X007877Y016447D01*
X007788Y016484D01*
X007381Y016484D01*
X007260Y016605D01*
X007305Y016560D02*
X008264Y016560D01*
X008264Y016402D02*
X008053Y016402D01*
X008113Y016243D02*
X008264Y016243D01*
X008264Y016085D02*
X008113Y016085D01*
X008113Y015926D02*
X008264Y015926D01*
X008264Y015768D02*
X008113Y015768D01*
X008113Y015609D02*
X008264Y015609D01*
X008264Y015451D02*
X008113Y015451D01*
X008113Y015292D02*
X008264Y015292D01*
X008264Y015134D02*
X008113Y015134D01*
X008113Y014975D02*
X008264Y014975D01*
X008264Y014817D02*
X008113Y014817D01*
X008113Y014658D02*
X008264Y014658D01*
X008264Y014500D02*
X008113Y014500D01*
X008113Y014341D02*
X008264Y014341D01*
X008264Y014183D02*
X008113Y014183D01*
X008069Y014024D02*
X008264Y014024D01*
X008264Y013866D02*
X008113Y013866D01*
X008113Y013707D02*
X008264Y013707D01*
X008264Y013549D02*
X008113Y013549D01*
X007993Y013468D02*
X008075Y013386D01*
X008112Y013390D02*
X008264Y013390D01*
X008264Y013232D02*
X008113Y013232D01*
X008033Y013073D02*
X008264Y013073D01*
X008264Y012915D02*
X007510Y012915D01*
X007510Y012756D02*
X008264Y012756D01*
X008264Y012598D02*
X007653Y012598D01*
X007731Y012439D02*
X008264Y012439D01*
X008165Y012281D02*
X007731Y012281D01*
X007585Y011998D02*
X007335Y012248D01*
X007585Y011998D02*
X008250Y011998D01*
X008524Y012271D01*
X008524Y012484D01*
X008917Y012484D02*
X008917Y010165D01*
X009750Y009332D01*
X009750Y008663D02*
X009750Y007557D01*
X010750Y007557D02*
X010750Y008663D01*
X010750Y009332D02*
X009114Y010968D01*
X009114Y012484D01*
X009311Y012484D02*
X009311Y011771D01*
X011750Y009332D01*
X012147Y009269D02*
X014861Y009269D01*
X015019Y009111D02*
X012147Y009111D01*
X012129Y008952D02*
X017793Y008952D01*
X018165Y009248D02*
X015250Y009248D01*
X014000Y010498D01*
X014000Y011498D01*
X013750Y011748D01*
X012750Y011748D01*
X012500Y011998D01*
X011500Y011998D01*
X011280Y012218D01*
X011280Y012484D01*
X011476Y012484D02*
X011476Y012271D01*
X011500Y012248D01*
X013000Y012248D01*
X013357Y012122D02*
X013373Y012122D01*
X013902Y011964D02*
X014740Y011964D01*
X014740Y012122D02*
X013958Y012122D01*
X014062Y012281D02*
X014740Y012281D01*
X014740Y012439D02*
X014062Y012439D01*
X014062Y012598D02*
X014740Y012598D01*
X014740Y012756D02*
X014062Y012756D01*
X014335Y012582D02*
X014500Y012748D01*
X014500Y012663D01*
X014335Y012498D01*
X014335Y011248D01*
X015164Y010418D01*
X015164Y009914D01*
X015309Y009769D01*
X018492Y009769D01*
X018492Y008901D01*
X018347Y008756D01*
X017624Y008033D01*
X014875Y008033D01*
X012994Y009914D01*
X012994Y010059D01*
X014152Y008901D01*
X014152Y008612D01*
X014875Y007888D01*
X018347Y007888D01*
X018347Y008756D01*
X018835Y009248D02*
X019500Y009248D01*
X019853Y009111D02*
X020084Y009111D01*
X020084Y009269D02*
X019878Y009269D01*
X019835Y009428D02*
X020084Y009428D01*
X020084Y009586D02*
X019671Y009586D01*
X019656Y009903D02*
X020084Y009903D01*
X020084Y009745D02*
X015121Y009745D01*
X014962Y009903D02*
X017842Y009903D01*
X017836Y009586D02*
X015279Y009586D01*
X015568Y010062D02*
X014804Y010062D01*
X014645Y010220D02*
X015410Y010220D01*
X015251Y010379D02*
X014487Y010379D01*
X014328Y010537D02*
X015093Y010537D01*
X014934Y010696D02*
X014260Y010696D01*
X014260Y010854D02*
X014778Y010854D01*
X014740Y011013D02*
X014260Y011013D01*
X014260Y011171D02*
X014740Y011171D01*
X014740Y011330D02*
X014260Y011330D01*
X014260Y011488D02*
X014740Y011488D01*
X014740Y011647D02*
X014219Y011647D01*
X014060Y011805D02*
X014740Y011805D01*
X015260Y011805D02*
X020084Y011805D01*
X020084Y011647D02*
X015260Y011647D01*
X015260Y011488D02*
X017206Y011488D01*
X017179Y011462D02*
X017122Y011323D01*
X017122Y011172D01*
X017179Y011033D01*
X017286Y010927D01*
X017425Y010869D01*
X017575Y010869D01*
X017714Y010927D01*
X017775Y010988D01*
X017789Y010988D01*
X017789Y010956D01*
X017894Y010851D01*
X018437Y010851D01*
X018500Y010914D01*
X018563Y010851D01*
X019106Y010851D01*
X019211Y010956D01*
X019211Y010988D01*
X019225Y010988D01*
X019286Y010927D01*
X019425Y010869D01*
X019575Y010869D01*
X019714Y010927D01*
X019821Y011033D01*
X019878Y011172D01*
X019878Y011323D01*
X019821Y011462D01*
X019714Y011568D01*
X019575Y011626D01*
X019425Y011626D01*
X019286Y011568D01*
X019225Y011508D01*
X019211Y011508D01*
X019211Y011539D01*
X019106Y011644D01*
X018563Y011644D01*
X018500Y011581D01*
X018437Y011644D01*
X017894Y011644D01*
X017789Y011539D01*
X017789Y011508D01*
X017775Y011508D01*
X017714Y011568D01*
X017575Y011626D01*
X017425Y011626D01*
X017286Y011568D01*
X017179Y011462D01*
X017125Y011330D02*
X015260Y011330D01*
X015260Y011171D02*
X017122Y011171D01*
X017200Y011013D02*
X015353Y011013D01*
X015511Y010854D02*
X017891Y010854D01*
X017789Y010537D02*
X015828Y010537D01*
X015670Y010696D02*
X020084Y010696D01*
X020084Y010854D02*
X019109Y010854D01*
X019211Y010537D02*
X019255Y010537D01*
X019500Y010248D02*
X018835Y010248D01*
X018165Y010248D02*
X015750Y010248D01*
X015000Y010998D01*
X015000Y013998D01*
X014750Y014248D01*
X013250Y014248D01*
X013061Y014059D01*
X012264Y014059D01*
X012264Y014255D02*
X012758Y014255D01*
X013000Y014498D01*
X017000Y014498D01*
X017250Y014248D01*
X018165Y014248D01*
X018835Y014248D02*
X019500Y014248D01*
X019783Y014500D02*
X020084Y014500D01*
X020084Y014658D02*
X017207Y014658D01*
X016947Y014183D02*
X015183Y014183D01*
X015260Y014024D02*
X015492Y014024D01*
X015536Y014068D02*
X015429Y013962D01*
X015372Y013823D01*
X015372Y013672D01*
X015429Y013533D01*
X015536Y013427D01*
X015675Y013369D01*
X015760Y013369D01*
X015990Y013140D01*
X015990Y012446D01*
X016030Y012350D01*
X016103Y012277D01*
X016353Y012027D01*
X016448Y011988D01*
X017789Y011988D01*
X017789Y011956D01*
X017894Y011851D01*
X018437Y011851D01*
X018500Y011914D01*
X018563Y011851D01*
X019106Y011851D01*
X019211Y011956D01*
X019211Y011988D01*
X019225Y011988D01*
X019286Y011927D01*
X019425Y011869D01*
X019575Y011869D01*
X019714Y011927D01*
X019821Y012033D01*
X019878Y012172D01*
X019878Y012323D01*
X019821Y012462D01*
X019714Y012568D01*
X019575Y012626D01*
X019425Y012626D01*
X019286Y012568D01*
X019225Y012508D01*
X019211Y012508D01*
X019211Y012539D01*
X019106Y012644D01*
X018563Y012644D01*
X018500Y012581D01*
X018437Y012644D01*
X017894Y012644D01*
X017789Y012539D01*
X017789Y012508D01*
X016608Y012508D01*
X016510Y012605D01*
X016510Y012953D01*
X016536Y012927D01*
X016675Y012869D01*
X016825Y012869D01*
X016964Y012927D01*
X017025Y012988D01*
X017789Y012988D01*
X017789Y012956D01*
X017894Y012851D01*
X018437Y012851D01*
X018500Y012914D01*
X018563Y012851D01*
X019106Y012851D01*
X019211Y012956D01*
X019211Y012988D01*
X019225Y012988D01*
X019286Y012927D01*
X019425Y012869D01*
X019575Y012869D01*
X019714Y012927D01*
X019821Y013033D01*
X019878Y013172D01*
X019878Y013323D01*
X019821Y013462D01*
X019714Y013568D01*
X019575Y013626D01*
X019425Y013626D01*
X019286Y013568D01*
X019225Y013508D01*
X019211Y013508D01*
X019211Y013539D01*
X019106Y013644D01*
X018563Y013644D01*
X018500Y013581D01*
X018437Y013644D01*
X017894Y013644D01*
X017789Y013539D01*
X017789Y013508D01*
X017025Y013508D01*
X016964Y013568D01*
X016825Y013626D01*
X016675Y013626D01*
X016536Y013568D01*
X016429Y013462D01*
X016422Y013443D01*
X016128Y013737D01*
X016128Y013823D01*
X016071Y013962D01*
X015964Y014068D01*
X015825Y014126D01*
X015675Y014126D01*
X015536Y014068D01*
X015390Y013866D02*
X015260Y013866D01*
X015260Y013707D02*
X015372Y013707D01*
X015423Y013549D02*
X015260Y013549D01*
X015260Y013390D02*
X015625Y013390D01*
X015898Y013232D02*
X015260Y013232D01*
X015260Y013073D02*
X015990Y013073D01*
X015990Y012915D02*
X015260Y012915D01*
X015260Y012756D02*
X015990Y012756D01*
X015990Y012598D02*
X015260Y012598D01*
X015260Y012439D02*
X015993Y012439D01*
X016099Y012281D02*
X015260Y012281D01*
X015260Y012122D02*
X016258Y012122D01*
X016500Y012248D02*
X016250Y012498D01*
X016250Y013248D01*
X015750Y013748D01*
X016008Y014024D02*
X017110Y014024D01*
X016984Y013549D02*
X017798Y013549D01*
X017879Y013866D02*
X016110Y013866D01*
X016158Y013707D02*
X020084Y013707D01*
X020084Y013549D02*
X019734Y013549D01*
X019850Y013390D02*
X020084Y013390D01*
X020084Y013232D02*
X019878Y013232D01*
X019837Y013073D02*
X020084Y013073D01*
X020084Y012915D02*
X019684Y012915D01*
X019643Y012598D02*
X020084Y012598D01*
X020084Y012756D02*
X016510Y012756D01*
X016510Y012915D02*
X016566Y012915D01*
X016518Y012598D02*
X017847Y012598D01*
X017830Y012915D02*
X016934Y012915D01*
X016750Y013248D02*
X018165Y013248D01*
X018835Y013248D02*
X019500Y013248D01*
X019266Y013549D02*
X019202Y013549D01*
X019121Y013866D02*
X020084Y013866D01*
X020084Y014024D02*
X019811Y014024D01*
X019878Y014183D02*
X020084Y014183D01*
X020084Y014341D02*
X019871Y014341D01*
X020084Y014817D02*
X014834Y014817D01*
X014878Y014975D02*
X015738Y014975D01*
X015786Y014927D02*
X015679Y015033D01*
X015622Y015172D01*
X015622Y015323D01*
X015679Y015462D01*
X015786Y015568D01*
X015925Y015626D01*
X016075Y015626D01*
X016214Y015568D01*
X016275Y015508D01*
X017789Y015508D01*
X017789Y015539D01*
X017894Y015644D01*
X018437Y015644D01*
X018500Y015581D01*
X018563Y015644D01*
X019106Y015644D01*
X019211Y015539D01*
X019211Y015508D01*
X019225Y015508D01*
X019286Y015568D01*
X019425Y015626D01*
X019575Y015626D01*
X019714Y015568D01*
X019821Y015462D01*
X019878Y015323D01*
X019878Y015172D01*
X019821Y015033D01*
X019714Y014927D01*
X019575Y014869D01*
X019425Y014869D01*
X019286Y014927D01*
X019225Y014988D01*
X019211Y014988D01*
X019211Y014956D01*
X019106Y014851D01*
X018563Y014851D01*
X018500Y014914D01*
X018437Y014851D01*
X017894Y014851D01*
X017789Y014956D01*
X017789Y014988D01*
X016275Y014988D01*
X016214Y014927D01*
X016075Y014869D01*
X015925Y014869D01*
X015786Y014927D01*
X015638Y015134D02*
X015004Y015134D01*
X015162Y015292D02*
X015622Y015292D01*
X015675Y015451D02*
X015321Y015451D01*
X015474Y015609D02*
X015885Y015609D01*
X016115Y015609D02*
X017859Y015609D01*
X017894Y015851D02*
X017789Y015956D01*
X017789Y015988D01*
X016525Y015988D01*
X016464Y015927D01*
X016325Y015869D01*
X016175Y015869D01*
X016036Y015927D01*
X015929Y016033D01*
X015872Y016172D01*
X015872Y016323D01*
X015929Y016462D01*
X016036Y016568D01*
X016175Y016626D01*
X016325Y016626D01*
X016464Y016568D01*
X016525Y016508D01*
X017789Y016508D01*
X017789Y016539D01*
X017894Y016644D01*
X018437Y016644D01*
X018500Y016581D01*
X018563Y016644D01*
X019106Y016644D01*
X019211Y016539D01*
X019211Y016508D01*
X019225Y016508D01*
X019286Y016568D01*
X019425Y016626D01*
X019575Y016626D01*
X019714Y016568D01*
X019821Y016462D01*
X019878Y016323D01*
X019878Y016172D01*
X019821Y016033D01*
X019714Y015927D01*
X019575Y015869D01*
X019425Y015869D01*
X019286Y015927D01*
X019225Y015988D01*
X019211Y015988D01*
X019211Y015956D01*
X019106Y015851D01*
X018563Y015851D01*
X018500Y015914D01*
X018437Y015851D01*
X017894Y015851D01*
X017819Y015926D02*
X016462Y015926D01*
X016250Y016248D02*
X018165Y016248D01*
X017810Y016560D02*
X016472Y016560D01*
X016028Y016560D02*
X015680Y016560D01*
X015522Y016402D02*
X015905Y016402D01*
X015872Y016243D02*
X015510Y016243D01*
X015510Y016085D02*
X015908Y016085D01*
X016038Y015926D02*
X015510Y015926D01*
X015510Y015768D02*
X020084Y015768D01*
X020084Y015926D02*
X019712Y015926D01*
X019842Y016085D02*
X020084Y016085D01*
X020084Y016243D02*
X019878Y016243D01*
X019845Y016402D02*
X020084Y016402D01*
X020084Y016560D02*
X019722Y016560D01*
X019594Y016877D02*
X020084Y016877D01*
X020084Y016719D02*
X015839Y016719D01*
X015997Y016877D02*
X017868Y016877D01*
X018165Y017248D02*
X016000Y017248D01*
X015250Y016498D01*
X015250Y015748D01*
X014500Y014998D01*
X014000Y015248D02*
X013500Y014748D01*
X013000Y014748D01*
X012705Y014452D01*
X012264Y014452D01*
X012264Y013862D02*
X013551Y013862D01*
X013665Y013748D01*
X014062Y013707D02*
X014740Y013707D01*
X014740Y013549D02*
X014062Y013549D01*
X013976Y013390D02*
X014740Y013390D01*
X014740Y013232D02*
X013301Y013232D01*
X013355Y013390D02*
X013222Y013390D01*
X013280Y013468D02*
X013500Y013248D01*
X014250Y013248D01*
X014500Y012998D01*
X014500Y013582D01*
X014335Y013748D01*
X014250Y013663D01*
X014062Y013866D02*
X014740Y013866D01*
X014500Y012998D02*
X014500Y012748D01*
X014335Y012582D02*
X014335Y012498D01*
X013665Y012498D02*
X013449Y012498D01*
X013283Y012663D01*
X011981Y012663D01*
X011073Y013571D01*
X010750Y013248D01*
X010886Y013112D01*
X010886Y012484D01*
X011083Y012484D02*
X011083Y012165D01*
X011500Y011748D01*
X012000Y011748D01*
X012500Y011248D01*
X013665Y011248D01*
X013740Y010854D02*
X010795Y010854D01*
X010754Y010696D02*
X013740Y010696D01*
X013740Y010537D02*
X010913Y010537D01*
X011071Y010379D02*
X013768Y010379D01*
X013910Y010220D02*
X011230Y010220D01*
X011388Y010062D02*
X014068Y010062D01*
X014227Y009903D02*
X011547Y009903D01*
X011705Y009745D02*
X014385Y009745D01*
X014544Y009586D02*
X012147Y009586D01*
X012147Y009428D02*
X014702Y009428D01*
X012994Y010059D02*
X012560Y010059D01*
X010969Y011650D01*
X010824Y011650D01*
X010689Y011785D01*
X010689Y012484D01*
X010689Y011949D01*
X010679Y011939D01*
X010625Y012122D02*
X010753Y012122D01*
X010916Y011964D02*
X010319Y011964D01*
X010378Y011805D02*
X011075Y011805D01*
X011233Y011647D02*
X010426Y011647D01*
X010000Y011705D02*
X010489Y011216D01*
X010886Y011171D02*
X012209Y011171D01*
X012050Y011330D02*
X010886Y011330D01*
X010885Y011488D02*
X011447Y011488D01*
X010886Y011013D02*
X012388Y011013D01*
X010000Y011705D02*
X010000Y011748D01*
X009705Y012043D01*
X009705Y012484D01*
X008750Y013248D02*
X010750Y013248D01*
X011073Y013571D02*
X011167Y013665D01*
X012264Y013665D01*
X011413Y013665D01*
X011403Y013676D01*
X011258Y013676D01*
X011258Y015846D01*
X011636Y016224D01*
X012264Y016224D01*
X012476Y016224D01*
X012750Y016498D01*
X012750Y017163D01*
X012665Y017248D01*
X013062Y017194D02*
X013829Y017194D01*
X013740Y017036D02*
X013062Y017036D01*
X013010Y016877D02*
X013740Y016877D01*
X013740Y016719D02*
X013010Y016719D01*
X013010Y016560D02*
X013310Y016560D01*
X013269Y016402D02*
X012992Y016402D01*
X012863Y016243D02*
X013269Y016243D01*
X013250Y016248D02*
X013250Y017163D01*
X013335Y017248D01*
X013062Y017353D02*
X013987Y017353D01*
X014146Y017511D02*
X013123Y017511D01*
X013015Y017748D02*
X013139Y017872D01*
X013690Y017872D01*
X013711Y017892D01*
X014081Y017987D02*
X014621Y017987D01*
X014648Y018145D02*
X014780Y018145D01*
X014807Y018304D02*
X014938Y018304D01*
X014957Y018462D02*
X015097Y018462D01*
X014990Y018621D02*
X017870Y018621D01*
X017807Y018938D02*
X015007Y018938D01*
X014990Y018779D02*
X020084Y018779D01*
X020084Y018621D02*
X019587Y018621D01*
X019413Y018621D02*
X019130Y018621D01*
X019193Y018938D02*
X019275Y018938D01*
X019500Y019248D02*
X018835Y019248D01*
X018165Y019248D02*
X014949Y019248D01*
X014730Y019029D01*
X014730Y018595D01*
X014383Y018248D01*
X012000Y018248D01*
X011250Y018748D02*
X011083Y018580D01*
X011083Y017011D01*
X011280Y017011D02*
X011280Y017527D01*
X011500Y017748D01*
X013015Y017748D01*
X014023Y017670D02*
X014304Y017670D01*
X014463Y017828D02*
X014089Y017828D01*
X014723Y017353D02*
X015737Y017353D01*
X015579Y017194D02*
X014564Y017194D01*
X014406Y017036D02*
X015420Y017036D01*
X015262Y016877D02*
X014260Y016877D01*
X014260Y016719D02*
X015103Y016719D01*
X014994Y016560D02*
X014260Y016560D01*
X014260Y016402D02*
X014990Y016402D01*
X014990Y016243D02*
X014260Y016243D01*
X014335Y016248D02*
X015814Y017727D01*
X018347Y017727D01*
X018492Y017872D01*
X018492Y019752D01*
X015164Y019752D01*
X014586Y019174D01*
X014441Y019174D01*
X014296Y019029D01*
X014260Y019096D02*
X014477Y019096D01*
X014470Y018938D02*
X014260Y018938D01*
X014260Y018779D02*
X014470Y018779D01*
X014388Y018621D02*
X014229Y018621D01*
X014000Y018748D02*
X013750Y018498D01*
X012750Y018498D01*
X012500Y018748D01*
X011250Y018748D01*
X011000Y018998D02*
X013665Y018998D01*
X014000Y018748D02*
X014000Y019498D01*
X014750Y020248D01*
X018165Y020248D01*
X017789Y020523D02*
X012510Y020523D01*
X012510Y020681D02*
X020084Y020681D01*
X020084Y020523D02*
X019760Y020523D01*
X019861Y020364D02*
X020084Y020364D01*
X020084Y020206D02*
X019878Y020206D01*
X019826Y020047D02*
X020084Y020047D01*
X020084Y019889D02*
X019621Y019889D01*
X019379Y019889D02*
X019144Y019889D01*
X019179Y019572D02*
X019294Y019572D01*
X019706Y019572D02*
X020084Y019572D01*
X020084Y019730D02*
X014600Y019730D01*
X014442Y019572D02*
X017821Y019572D01*
X017856Y019889D02*
X014759Y019889D01*
X014340Y020206D02*
X012510Y020206D01*
X012510Y020364D02*
X014499Y020364D01*
X014182Y020047D02*
X012510Y020047D01*
X012510Y019889D02*
X014023Y019889D01*
X013865Y019730D02*
X012510Y019730D01*
X012442Y019572D02*
X013749Y019572D01*
X013740Y019413D02*
X012283Y019413D01*
X012250Y019748D02*
X011750Y019248D01*
X011000Y019248D01*
X010750Y019498D01*
X010750Y019748D01*
X010022Y020476D01*
X009232Y020476D01*
X008566Y020998D01*
X003750Y020998D01*
X003250Y020498D01*
X003250Y017248D01*
X004470Y016027D01*
X007736Y016027D01*
X007736Y016224D02*
X007274Y016224D01*
X007000Y016498D01*
X007000Y017748D01*
X006750Y017998D01*
X006000Y017998D01*
X005500Y018498D01*
X005500Y019748D01*
X005980Y019730D02*
X006740Y019730D01*
X006740Y019572D02*
X005980Y019572D01*
X005980Y019413D02*
X006740Y019413D01*
X006740Y019255D02*
X005940Y019255D01*
X005827Y019096D02*
X006740Y019096D01*
X006743Y018938D02*
X005760Y018938D01*
X005760Y018779D02*
X006851Y018779D01*
X007009Y018621D02*
X005760Y018621D01*
X005903Y018462D02*
X007168Y018462D01*
X007000Y018498D02*
X007500Y017998D01*
X007500Y017413D01*
X007335Y017248D01*
X007260Y017353D02*
X008264Y017353D01*
X008119Y017511D02*
X007260Y017511D01*
X007260Y017670D02*
X007960Y017670D01*
X007802Y017828D02*
X007248Y017828D01*
X007129Y017987D02*
X007643Y017987D01*
X007485Y018145D02*
X006970Y018145D01*
X007326Y018304D02*
X006062Y018304D01*
X006500Y018748D02*
X006750Y018498D01*
X007000Y018498D01*
X006500Y018748D02*
X006500Y019748D01*
X006740Y019889D02*
X005980Y019889D01*
X005980Y020047D02*
X006740Y020047D01*
X006740Y020206D02*
X005954Y020206D01*
X005862Y020364D02*
X006740Y020364D01*
X007496Y020331D02*
X007496Y019751D01*
X007500Y019748D01*
X007980Y019730D02*
X008020Y019730D01*
X008020Y019572D02*
X007980Y019572D01*
X007980Y019413D02*
X008020Y019413D01*
X008020Y019352D02*
X008093Y019176D01*
X008228Y019041D01*
X008405Y018968D01*
X008407Y018968D01*
X008394Y018936D01*
X008394Y017972D01*
X007393Y018972D01*
X007405Y018968D01*
X007595Y018968D01*
X007772Y019041D01*
X007907Y019176D01*
X007980Y019352D01*
X007980Y020143D01*
X007916Y020298D01*
X008009Y020361D01*
X008134Y020361D01*
X008093Y020319D01*
X008020Y020143D01*
X008020Y019352D01*
X008060Y019255D02*
X007940Y019255D01*
X007827Y019096D02*
X008173Y019096D01*
X008075Y018884D02*
X008075Y018306D01*
X008720Y017660D01*
X008720Y017011D01*
X008917Y017011D02*
X008917Y017752D01*
X008654Y018016D01*
X008654Y018884D01*
X009088Y019318D01*
X009088Y020187D01*
X008509Y020621D01*
X007930Y020621D01*
X007496Y020331D01*
X007954Y020206D02*
X008046Y020206D01*
X008020Y020047D02*
X007980Y020047D01*
X007980Y019889D02*
X008020Y019889D01*
X008750Y021248D02*
X009395Y020748D01*
X010500Y020748D01*
X011500Y019748D01*
X012250Y019748D02*
X012250Y021163D01*
X013000Y021913D01*
X013397Y021949D02*
X013603Y021949D01*
X013603Y021791D02*
X013397Y021791D01*
X013387Y021632D02*
X013613Y021632D01*
X013441Y021474D02*
X012928Y021474D01*
X012770Y021315D02*
X013372Y021315D01*
X013378Y021157D02*
X012611Y021157D01*
X012510Y020998D02*
X013465Y020998D01*
X013750Y021248D02*
X014000Y021498D01*
X014000Y021913D01*
X014000Y022582D02*
X014000Y023748D01*
X013000Y023748D02*
X013000Y022582D01*
X011750Y022248D02*
X016665Y022248D01*
X017000Y021913D01*
X017397Y021949D02*
X020084Y021949D01*
X020084Y021791D02*
X017397Y021791D01*
X017387Y021632D02*
X020084Y021632D01*
X020084Y021474D02*
X015928Y021474D01*
X015878Y021315D02*
X020084Y021315D01*
X020084Y021157D02*
X015872Y021157D01*
X015785Y020998D02*
X020084Y020998D01*
X020084Y020840D02*
X012510Y020840D01*
X011750Y021248D02*
X009895Y021248D01*
X009250Y021748D01*
X003000Y021748D01*
X002500Y021248D01*
X002500Y015748D01*
X003598Y014649D01*
X007736Y014649D01*
X007736Y014452D02*
X003295Y014452D01*
X002250Y015498D01*
X002250Y021498D01*
X002750Y021998D01*
X009500Y021998D01*
X010145Y021498D01*
X011000Y021498D01*
X011750Y022248D01*
X010500Y022582D02*
X010400Y022682D01*
X010400Y023748D01*
X009980Y023376D02*
X009820Y023376D01*
X009583Y023217D02*
X010140Y023217D01*
X010140Y023059D02*
X001111Y023059D01*
X001111Y023217D02*
X001217Y023217D01*
X001111Y022900D02*
X010140Y022900D01*
X010103Y022742D02*
X001111Y022742D01*
X001111Y022583D02*
X010103Y022583D01*
X010165Y022248D02*
X010500Y021913D01*
X010165Y022248D02*
X002500Y022248D01*
X002000Y021748D01*
X002000Y015248D01*
X002992Y014255D01*
X007736Y014255D01*
X007736Y014059D02*
X007445Y014059D01*
X007351Y013965D01*
X007736Y013665D02*
X005583Y013665D01*
X005500Y013582D01*
X005103Y013549D02*
X001111Y013549D01*
X001111Y013707D02*
X005103Y013707D01*
X005115Y013866D02*
X001111Y013866D01*
X001111Y014024D02*
X002871Y014024D01*
X002697Y014183D02*
X001111Y014183D01*
X001111Y014341D02*
X002539Y014341D01*
X002380Y014500D02*
X001111Y014500D01*
X001111Y014658D02*
X002222Y014658D01*
X002063Y014817D02*
X001111Y014817D01*
X001111Y014975D02*
X001905Y014975D01*
X001766Y015134D02*
X001111Y015134D01*
X001111Y015292D02*
X001740Y015292D01*
X001740Y015451D02*
X001111Y015451D01*
X001111Y015609D02*
X001740Y015609D01*
X001740Y015768D02*
X001111Y015768D01*
X001111Y015926D02*
X001740Y015926D01*
X001740Y016085D02*
X001111Y016085D01*
X001111Y016243D02*
X001740Y016243D01*
X001740Y016402D02*
X001111Y016402D01*
X001111Y016560D02*
X001740Y016560D01*
X001740Y016719D02*
X001111Y016719D01*
X001111Y016877D02*
X001740Y016877D01*
X001740Y017036D02*
X001111Y017036D01*
X001111Y017194D02*
X001740Y017194D01*
X001740Y017353D02*
X001111Y017353D01*
X001111Y017511D02*
X001740Y017511D01*
X001740Y017670D02*
X001111Y017670D01*
X001111Y017828D02*
X001740Y017828D01*
X001740Y017987D02*
X001111Y017987D01*
X001111Y018145D02*
X001740Y018145D01*
X001740Y018304D02*
X001111Y018304D01*
X001111Y018462D02*
X001740Y018462D01*
X001740Y018621D02*
X001111Y018621D01*
X001111Y018779D02*
X001740Y018779D01*
X001740Y018938D02*
X001111Y018938D01*
X001111Y019096D02*
X001740Y019096D01*
X001740Y019255D02*
X001111Y019255D01*
X001111Y019413D02*
X001740Y019413D01*
X001740Y019572D02*
X001111Y019572D01*
X001111Y019730D02*
X001740Y019730D01*
X001740Y019889D02*
X001111Y019889D01*
X001111Y020047D02*
X001740Y020047D01*
X001740Y020206D02*
X001111Y020206D01*
X001111Y020364D02*
X001740Y020364D01*
X001740Y020523D02*
X001111Y020523D01*
X001111Y020681D02*
X001740Y020681D01*
X001740Y020840D02*
X001111Y020840D01*
X001111Y020998D02*
X001740Y020998D01*
X001740Y021157D02*
X001111Y021157D01*
X001111Y021315D02*
X001740Y021315D01*
X001740Y021474D02*
X001111Y021474D01*
X001111Y021632D02*
X001740Y021632D01*
X001740Y021791D02*
X001111Y021791D01*
X001111Y021949D02*
X001834Y021949D01*
X001992Y022108D02*
X001111Y022108D01*
X001111Y022266D02*
X002151Y022266D01*
X002280Y022395D02*
X002280Y022395D01*
X002309Y022425D02*
X001111Y022425D01*
X001583Y023217D02*
X002217Y023217D01*
X001980Y023376D02*
X001820Y023376D01*
X002583Y023217D02*
X003217Y023217D01*
X002980Y023376D02*
X002820Y023376D01*
X003583Y023217D02*
X005217Y023217D01*
X004980Y023376D02*
X003820Y023376D01*
X003918Y023534D02*
X004882Y023534D01*
X004840Y023693D02*
X003960Y023693D01*
X003960Y023851D02*
X004840Y023851D01*
X004902Y024010D02*
X003898Y024010D01*
X003771Y024168D02*
X005029Y024168D01*
X005820Y023376D02*
X005980Y023376D01*
X006217Y023217D02*
X005583Y023217D01*
X006583Y023217D02*
X007217Y023217D01*
X006980Y023376D02*
X006820Y023376D01*
X007583Y023217D02*
X008217Y023217D01*
X007980Y023376D02*
X007820Y023376D01*
X008583Y023217D02*
X009217Y023217D01*
X008980Y023376D02*
X008820Y023376D01*
X009000Y021498D02*
X009645Y020998D01*
X011250Y020998D01*
X011500Y020748D01*
X011500Y020498D01*
X009000Y021498D02*
X003250Y021498D01*
X002750Y020998D01*
X002750Y015998D01*
X003902Y014846D01*
X007736Y014846D01*
X007736Y015043D02*
X004205Y015043D01*
X003000Y016248D01*
X003000Y020748D01*
X003500Y021248D01*
X008750Y021248D01*
X008394Y018938D02*
X007428Y018938D01*
X007586Y018779D02*
X008394Y018779D01*
X008394Y018621D02*
X007745Y018621D01*
X007903Y018462D02*
X008394Y018462D01*
X008394Y018304D02*
X008062Y018304D01*
X008220Y018145D02*
X008394Y018145D01*
X008379Y017987D02*
X008394Y017987D01*
X009000Y017998D02*
X009114Y017883D01*
X009114Y017011D01*
X009311Y017011D02*
X009311Y018559D01*
X009500Y018748D01*
X009500Y018998D01*
X010000Y018748D02*
X010000Y018498D01*
X009508Y018005D01*
X009508Y017011D01*
X009705Y017011D02*
X009705Y017702D01*
X011000Y018998D01*
X009000Y018248D02*
X009000Y017998D01*
X011476Y017224D02*
X011476Y017011D01*
X011476Y017224D02*
X011500Y017248D01*
X012000Y017248D01*
X013030Y016027D02*
X013250Y016248D01*
X013030Y016027D02*
X012264Y016027D01*
X012264Y015830D02*
X013248Y015830D01*
X013665Y016248D01*
X014260Y016085D02*
X014990Y016085D01*
X014990Y015926D02*
X014260Y015926D01*
X014260Y015768D02*
X014902Y015768D01*
X014744Y015609D02*
X014260Y015609D01*
X014260Y015451D02*
X014585Y015451D01*
X014000Y015248D02*
X014000Y016998D01*
X015250Y018248D01*
X018165Y018248D01*
X017789Y017987D02*
X015357Y017987D01*
X015198Y017828D02*
X020084Y017828D01*
X020084Y017670D02*
X015040Y017670D01*
X014881Y017511D02*
X017789Y017511D01*
X018347Y017727D02*
X018492Y017727D01*
X018492Y009769D01*
X018489Y009903D02*
X018511Y009903D01*
X018495Y009586D02*
X018505Y009586D01*
X019164Y009586D02*
X019329Y009586D01*
X019344Y009903D02*
X019158Y009903D01*
X019832Y010062D02*
X020084Y010062D01*
X020084Y010220D02*
X019878Y010220D01*
X019855Y010379D02*
X020084Y010379D01*
X020084Y010537D02*
X019745Y010537D01*
X019800Y011013D02*
X020084Y011013D01*
X020084Y011171D02*
X019878Y011171D01*
X019875Y011330D02*
X020084Y011330D01*
X020084Y011488D02*
X019794Y011488D01*
X019500Y011248D02*
X018835Y011248D01*
X018560Y010854D02*
X018440Y010854D01*
X018165Y011248D02*
X017500Y011248D01*
X017789Y011964D02*
X015260Y011964D01*
X016500Y012248D02*
X018165Y012248D01*
X018483Y012598D02*
X018517Y012598D01*
X018835Y012248D02*
X019500Y012248D01*
X019357Y012598D02*
X019153Y012598D01*
X019170Y012915D02*
X019316Y012915D01*
X019830Y012439D02*
X020084Y012439D01*
X020084Y012281D02*
X019878Y012281D01*
X019857Y012122D02*
X020084Y012122D01*
X020084Y011964D02*
X019751Y011964D01*
X019249Y011964D02*
X019211Y011964D01*
X016516Y013549D02*
X016317Y013549D01*
X018451Y013866D02*
X018549Y013866D01*
X019211Y014975D02*
X019238Y014975D01*
X019500Y015248D02*
X018835Y015248D01*
X018165Y015248D02*
X016000Y015248D01*
X016262Y014975D02*
X017789Y014975D01*
X018472Y015609D02*
X018528Y015609D01*
X019141Y015609D02*
X019385Y015609D01*
X019615Y015609D02*
X020084Y015609D01*
X020084Y015451D02*
X019825Y015451D01*
X019878Y015292D02*
X020084Y015292D01*
X020084Y015134D02*
X019862Y015134D01*
X019762Y014975D02*
X020084Y014975D01*
X019288Y015926D02*
X019181Y015926D01*
X019500Y016248D02*
X018835Y016248D01*
X019190Y016560D02*
X019278Y016560D01*
X019406Y016877D02*
X019132Y016877D01*
X018835Y017248D02*
X019500Y017248D01*
X019229Y017511D02*
X019211Y017511D01*
X019771Y017511D02*
X020084Y017511D01*
X020084Y017353D02*
X019866Y017353D01*
X019878Y017194D02*
X020084Y017194D01*
X020084Y017036D02*
X019821Y017036D01*
X018537Y016877D02*
X018463Y016877D01*
X019211Y017987D02*
X019226Y017987D01*
X019500Y018248D02*
X018835Y018248D01*
X018540Y018621D02*
X018460Y018621D01*
X019725Y018938D02*
X020084Y018938D01*
X020084Y019096D02*
X019847Y019096D01*
X019878Y019255D02*
X020084Y019255D01*
X020084Y019413D02*
X019841Y019413D01*
X018492Y019752D02*
X018492Y021199D01*
X017335Y021199D01*
X017045Y020910D01*
X016467Y020910D01*
X016756Y021199D01*
X017335Y021199D01*
X016613Y021632D02*
X016387Y021632D01*
X016397Y021791D02*
X016603Y021791D01*
X016596Y021949D02*
X016397Y021949D01*
X016000Y021913D02*
X015500Y021413D01*
X015500Y021248D01*
X015215Y020998D02*
X014785Y020998D01*
X014872Y021157D02*
X015128Y021157D01*
X015122Y021315D02*
X014878Y021315D01*
X014928Y021474D02*
X015191Y021474D01*
X015000Y021913D02*
X014500Y021413D01*
X014500Y021248D01*
X014215Y020998D02*
X014035Y020998D01*
X014122Y021157D02*
X014128Y021157D01*
X015000Y022582D02*
X015000Y023748D01*
X016000Y023748D02*
X016000Y022582D01*
X017000Y022582D02*
X017000Y023748D01*
X017420Y023376D02*
X017580Y023376D01*
X017817Y023217D02*
X017260Y023217D01*
X017260Y023059D02*
X020084Y023059D01*
X020084Y023217D02*
X019183Y023217D01*
X019420Y023376D02*
X020084Y023376D01*
X020084Y023534D02*
X019518Y023534D01*
X019560Y023693D02*
X020084Y023693D01*
X020084Y023851D02*
X019560Y023851D01*
X019498Y024010D02*
X020084Y024010D01*
X020084Y024168D02*
X019371Y024168D01*
X018580Y023376D02*
X018420Y023376D01*
X018183Y023217D02*
X018817Y023217D01*
X020084Y022900D02*
X017350Y022900D01*
X017397Y022742D02*
X020084Y022742D01*
X020084Y022583D02*
X017397Y022583D01*
X017397Y022425D02*
X020084Y022425D01*
X020084Y022266D02*
X017352Y022266D01*
X017397Y022108D02*
X020084Y022108D01*
X019240Y020523D02*
X019211Y020523D01*
X019500Y020248D02*
X018835Y020248D01*
X018526Y019889D02*
X018474Y019889D01*
X019820Y018462D02*
X020084Y018462D01*
X020084Y018304D02*
X019878Y018304D01*
X019867Y018145D02*
X020084Y018145D01*
X020084Y017987D02*
X019774Y017987D01*
X014747Y019413D02*
X014283Y019413D01*
X014260Y019255D02*
X014588Y019255D01*
X014728Y019395D02*
X014728Y019395D01*
X023250Y021998D02*
X023750Y021998D01*
X025000Y023248D01*
X031000Y024748D02*
X032500Y023248D01*
X038500Y024748D02*
X040000Y023248D01*
X046000Y024748D02*
X047500Y023248D01*
X046250Y015998D02*
X046250Y015498D01*
X047500Y014248D01*
X040000Y014248D02*
X038750Y015498D01*
X038750Y015998D01*
X032500Y014248D02*
X031250Y015498D01*
X031000Y015498D01*
X025000Y014248D02*
X024250Y013498D01*
X022750Y013498D01*
X020084Y008952D02*
X019739Y008952D01*
X020084Y008794D02*
X012147Y008794D01*
X012147Y008635D02*
X020084Y008635D01*
X020084Y008477D02*
X012147Y008477D01*
X012073Y008318D02*
X020084Y008318D01*
X020084Y008160D02*
X012010Y008160D01*
X012231Y008001D02*
X020084Y008001D01*
X020084Y007843D02*
X012285Y007843D01*
X012285Y007684D02*
X020084Y007684D01*
X020084Y007526D02*
X012285Y007526D01*
X012285Y007367D02*
X020084Y007367D01*
X020084Y007209D02*
X012285Y007209D01*
X011750Y007557D02*
X011750Y008663D01*
X006740Y009111D02*
X005666Y009111D01*
X003623Y011964D02*
X001111Y011964D01*
X001111Y012122D02*
X003623Y012122D01*
X004047Y012281D02*
X001111Y012281D01*
X001111Y012439D02*
X003997Y012439D01*
X003997Y012598D02*
X001111Y012598D01*
X001111Y012756D02*
X003997Y012756D01*
X003997Y012915D02*
X001111Y012915D01*
X001111Y013073D02*
X004039Y013073D01*
X004374Y012681D02*
X004606Y012913D01*
X005500Y012913D01*
X005897Y012915D02*
X006990Y012915D01*
X006990Y013073D02*
X005897Y013073D01*
X005849Y013232D02*
X006990Y013232D01*
X007028Y013390D02*
X005897Y013390D01*
X005151Y013232D02*
X001111Y013232D01*
X001111Y013390D02*
X005103Y013390D01*
X005147Y012598D02*
X004751Y012598D01*
X004751Y012439D02*
X006938Y012439D01*
X006938Y012281D02*
X004701Y012281D01*
X005853Y012598D02*
X006990Y012598D01*
X006990Y012756D02*
X005897Y012756D01*
X007736Y013468D02*
X007993Y013468D01*
X008554Y013052D02*
X008750Y013248D01*
X012264Y013271D02*
X012976Y013271D01*
X013000Y013248D01*
X013000Y012998D01*
X013280Y013468D02*
X012264Y013468D01*
X012641Y013549D02*
X013269Y013549D01*
X019207Y008952D02*
X019261Y008952D01*
X023000Y006248D02*
X024000Y006248D01*
X025000Y005248D01*
X020084Y005148D02*
X019391Y005148D01*
X019506Y004990D02*
X020084Y004990D01*
X020084Y004831D02*
X019560Y004831D01*
X019560Y004673D02*
X020084Y004673D01*
X020084Y004514D02*
X019509Y004514D01*
X019400Y004356D02*
X020084Y004356D01*
X018609Y005148D02*
X018391Y005148D01*
X017609Y005148D02*
X017391Y005148D01*
X016609Y005148D02*
X016391Y005148D01*
X015609Y005148D02*
X015391Y005148D01*
X014609Y005148D02*
X014391Y005148D01*
X013609Y005148D02*
X012391Y005148D01*
X012506Y004990D02*
X013494Y004990D01*
X013440Y004831D02*
X012560Y004831D01*
X012560Y004673D02*
X013440Y004673D01*
X013491Y004514D02*
X012509Y004514D01*
X012400Y004356D02*
X013600Y004356D01*
X031000Y006498D02*
X031250Y006498D01*
X032500Y005248D01*
X038500Y006748D02*
X040000Y005248D01*
X046000Y006748D02*
X047500Y005248D01*
D21*
X046000Y006748D03*
X038500Y006748D03*
X031000Y006498D03*
X023000Y006248D03*
X019500Y009248D03*
X019500Y010248D03*
X019500Y011248D03*
X019500Y012248D03*
X019500Y013248D03*
X019500Y014248D03*
X019500Y015248D03*
X019500Y016248D03*
X019500Y017248D03*
X019500Y018248D03*
X019500Y019248D03*
X019500Y020248D03*
X023250Y021998D03*
X031000Y024748D03*
X038500Y024748D03*
X046000Y024748D03*
X046250Y015998D03*
X038750Y015998D03*
X031000Y015498D03*
X022750Y013498D03*
X017500Y011248D03*
X016750Y013248D03*
X015750Y013748D03*
X014500Y014998D03*
X016000Y015248D03*
X016250Y016248D03*
X013711Y017892D03*
X012000Y018248D03*
X010000Y018748D03*
X009500Y018998D03*
X009000Y018248D03*
X008075Y018884D03*
X011500Y019748D03*
X011500Y020498D03*
X011750Y021248D03*
X013750Y021248D03*
X014500Y021248D03*
X015500Y021248D03*
X012000Y017248D03*
X013000Y012998D03*
X013000Y012248D03*
X010000Y011748D03*
X001419Y011071D03*
X001419Y016280D03*
X001419Y021489D03*
D22*
X019216Y021248D02*
X022321Y021248D01*
X022406Y021119D02*
X022871Y020654D01*
X023418Y020289D01*
X024026Y020037D01*
X024671Y019909D01*
X025329Y019909D01*
X025974Y020037D01*
X026582Y020289D01*
X027129Y020654D01*
X027594Y021119D01*
X027959Y021666D01*
X028211Y022274D01*
X028339Y022919D01*
X028339Y023576D01*
X028211Y024222D01*
X027959Y024829D01*
X027594Y025376D01*
X027129Y025841D01*
X026582Y026207D01*
X025974Y026458D01*
X025329Y026587D01*
X024671Y026587D01*
X024026Y026458D01*
X023418Y026207D01*
X022871Y025841D01*
X022406Y025376D01*
X022041Y024829D01*
X021789Y024222D01*
X021661Y023576D01*
X021661Y022919D01*
X021789Y022274D01*
X022041Y021666D01*
X022406Y021119D01*
X022500Y021025D02*
X022500Y016470D01*
X022406Y016376D02*
X022041Y015829D01*
X021789Y015222D01*
X021661Y014576D01*
X021661Y013919D01*
X021772Y013361D01*
X021772Y013303D01*
X021921Y012944D01*
X021930Y012935D01*
X022041Y012666D01*
X022406Y012119D01*
X022871Y011654D01*
X023418Y011289D01*
X024026Y011037D01*
X024671Y010909D01*
X025329Y010909D01*
X025974Y011037D01*
X026582Y011289D01*
X027129Y011654D01*
X027594Y012119D01*
X027959Y012666D01*
X028211Y013274D01*
X028339Y013919D01*
X028339Y014576D01*
X028211Y015222D01*
X027959Y015829D01*
X027594Y016376D01*
X027129Y016841D01*
X026582Y017207D01*
X025974Y017458D01*
X025329Y017587D01*
X024671Y017587D01*
X024026Y017458D01*
X023418Y017207D01*
X022871Y016841D01*
X022406Y016376D01*
X022321Y016248D02*
X020478Y016248D01*
X020478Y016442D02*
X020352Y016748D01*
X022778Y016748D01*
X023000Y016927D02*
X023000Y020568D01*
X022778Y020748D02*
X020352Y020748D01*
X020329Y020802D02*
X020054Y021077D01*
X019695Y021226D01*
X019305Y021226D01*
X019268Y021210D01*
X019216Y021232D01*
X019216Y022604D01*
X019448Y022667D01*
X019712Y022819D01*
X019928Y023035D01*
X020081Y023300D01*
X020160Y023595D01*
X020160Y023900D01*
X020142Y023967D01*
X020158Y023967D01*
X020290Y024031D01*
X020426Y024087D01*
X020444Y024105D01*
X020466Y024116D01*
X020564Y024225D01*
X020668Y024329D01*
X020678Y024352D01*
X020694Y024371D01*
X020743Y024510D01*
X020799Y024645D01*
X020799Y024670D01*
X021562Y026850D01*
X051344Y026850D01*
X051344Y001659D01*
X021562Y001659D01*
X020799Y003839D01*
X020799Y003864D01*
X020743Y003999D01*
X020694Y004138D01*
X020678Y004157D01*
X020668Y004180D01*
X020564Y004284D01*
X020466Y004393D01*
X020444Y004404D01*
X020426Y004422D01*
X020290Y004478D01*
X020158Y004542D01*
X020146Y004542D01*
X020160Y004595D01*
X020160Y004900D01*
X020081Y005195D01*
X019928Y005460D01*
X019712Y005676D01*
X019448Y005829D01*
X019216Y005891D01*
X019216Y008263D01*
X019268Y008285D01*
X019305Y008269D01*
X019695Y008269D01*
X020054Y008418D01*
X020329Y008694D01*
X020478Y009053D01*
X020478Y009442D01*
X020352Y009748D01*
X051344Y009748D01*
X051344Y010248D02*
X020478Y010248D01*
X020478Y010442D02*
X020352Y010748D01*
X051344Y010748D01*
X051344Y011248D02*
X048983Y011248D01*
X049000Y011255D02*
X049000Y008240D01*
X048983Y008248D02*
X051344Y008248D01*
X051344Y008748D02*
X020352Y008748D01*
X020000Y008396D02*
X020000Y005336D01*
X020051Y005248D02*
X021661Y005248D01*
X021661Y005576D02*
X021661Y004919D01*
X021789Y004274D01*
X022041Y003666D01*
X022406Y003119D01*
X022871Y002654D01*
X023418Y002289D01*
X024026Y002037D01*
X024671Y001909D01*
X025329Y001909D01*
X025974Y002037D01*
X026582Y002289D01*
X027129Y002654D01*
X027594Y003119D01*
X027959Y003666D01*
X028211Y004274D01*
X028339Y004919D01*
X028339Y005576D01*
X028211Y006222D01*
X027959Y006829D01*
X027594Y007376D01*
X027129Y007841D01*
X026582Y008207D01*
X025974Y008458D01*
X025329Y008587D01*
X024671Y008587D01*
X024026Y008458D01*
X023418Y008207D01*
X022871Y007841D01*
X022406Y007376D01*
X022041Y006829D01*
X021789Y006222D01*
X021661Y005576D01*
X021695Y005748D02*
X019588Y005748D01*
X019500Y005798D02*
X019500Y008269D01*
X019216Y008248D02*
X023517Y008248D01*
X023500Y008240D02*
X023500Y011255D01*
X023517Y011248D02*
X020478Y011248D01*
X020478Y011442D02*
X020478Y011053D01*
X020352Y010748D01*
X020478Y010442D02*
X020478Y010053D01*
X020352Y009748D01*
X020478Y009248D02*
X051344Y009248D01*
X049629Y007841D02*
X049082Y008207D01*
X048474Y008458D01*
X047829Y008587D01*
X047171Y008587D01*
X046526Y008458D01*
X045918Y008207D01*
X045371Y007841D01*
X044906Y007376D01*
X044541Y006829D01*
X044289Y006222D01*
X044161Y005576D01*
X044161Y004919D01*
X044289Y004274D01*
X044541Y003666D01*
X044906Y003119D01*
X045371Y002654D01*
X045918Y002289D01*
X046526Y002037D01*
X047171Y001909D01*
X047829Y001909D01*
X048474Y002037D01*
X049082Y002289D01*
X049629Y002654D01*
X050094Y003119D01*
X050459Y003666D01*
X050711Y004274D01*
X050839Y004919D01*
X050839Y005576D01*
X050711Y006222D01*
X050459Y006829D01*
X050094Y007376D01*
X049629Y007841D01*
X049722Y007748D02*
X051344Y007748D01*
X051344Y007248D02*
X050179Y007248D01*
X050000Y007470D02*
X050000Y012025D01*
X050094Y012119D02*
X050459Y012666D01*
X050711Y013274D01*
X050839Y013919D01*
X050839Y014576D01*
X050711Y015222D01*
X050459Y015829D01*
X050094Y016376D01*
X049629Y016841D01*
X049082Y017207D01*
X048474Y017458D01*
X047829Y017587D01*
X047171Y017587D01*
X046526Y017458D01*
X045918Y017207D01*
X045371Y016841D01*
X044906Y016376D01*
X044541Y015829D01*
X044289Y015222D01*
X044161Y014576D01*
X044161Y013919D01*
X044289Y013274D01*
X044541Y012666D01*
X044906Y012119D01*
X045371Y011654D01*
X045918Y011289D01*
X046526Y011037D01*
X047171Y010909D01*
X047829Y010909D01*
X048474Y011037D01*
X049082Y011289D01*
X049629Y011654D01*
X050094Y012119D01*
X050179Y012248D02*
X051344Y012248D01*
X051344Y012748D02*
X050493Y012748D01*
X050500Y012765D02*
X050500Y006730D01*
X050493Y006748D02*
X051344Y006748D01*
X051344Y006248D02*
X050700Y006248D01*
X050805Y005748D02*
X051344Y005748D01*
X051344Y005248D02*
X050839Y005248D01*
X050805Y004748D02*
X051344Y004748D01*
X051344Y004248D02*
X050700Y004248D01*
X050500Y003765D02*
X050500Y001659D01*
X050000Y001659D02*
X050000Y003025D01*
X050179Y003248D02*
X051344Y003248D01*
X051344Y003748D02*
X050493Y003748D01*
X049722Y002748D02*
X051344Y002748D01*
X051344Y002248D02*
X048983Y002248D01*
X049000Y002255D02*
X049000Y001659D01*
X048500Y001659D02*
X048500Y002048D01*
X048000Y001943D02*
X048000Y001659D01*
X047500Y001659D02*
X047500Y001909D01*
X047000Y001943D02*
X047000Y001659D01*
X046500Y001659D02*
X046500Y002048D01*
X046017Y002248D02*
X041483Y002248D01*
X041500Y002255D02*
X041500Y001659D01*
X041000Y001659D02*
X041000Y002048D01*
X040974Y002037D02*
X041582Y002289D01*
X042129Y002654D01*
X042594Y003119D01*
X042959Y003666D01*
X043211Y004274D01*
X043339Y004919D01*
X043339Y005576D01*
X043211Y006222D01*
X042959Y006829D01*
X042594Y007376D01*
X042129Y007841D01*
X041582Y008207D01*
X040974Y008458D01*
X040329Y008587D01*
X039671Y008587D01*
X039026Y008458D01*
X038418Y008207D01*
X037871Y007841D01*
X037406Y007376D01*
X037041Y006829D01*
X036789Y006222D01*
X036661Y005576D01*
X036661Y004919D01*
X036789Y004274D01*
X037041Y003666D01*
X037406Y003119D01*
X037871Y002654D01*
X038418Y002289D01*
X039026Y002037D01*
X039671Y001909D01*
X040329Y001909D01*
X040974Y002037D01*
X040500Y001943D02*
X040500Y001659D01*
X040000Y001659D02*
X040000Y001909D01*
X039500Y001943D02*
X039500Y001659D01*
X039000Y001659D02*
X039000Y002048D01*
X038517Y002248D02*
X033983Y002248D01*
X034000Y002255D02*
X034000Y001659D01*
X033500Y001659D02*
X033500Y002048D01*
X033474Y002037D02*
X034082Y002289D01*
X034629Y002654D01*
X035094Y003119D01*
X035459Y003666D01*
X035711Y004274D01*
X035839Y004919D01*
X035839Y005576D01*
X035711Y006222D01*
X035459Y006829D01*
X035094Y007376D01*
X034629Y007841D01*
X034082Y008207D01*
X033474Y008458D01*
X032829Y008587D01*
X032171Y008587D01*
X031526Y008458D01*
X030918Y008207D01*
X030371Y007841D01*
X029906Y007376D01*
X029541Y006829D01*
X029289Y006222D01*
X029161Y005576D01*
X029161Y004919D01*
X029289Y004274D01*
X029541Y003666D01*
X029906Y003119D01*
X030371Y002654D01*
X030918Y002289D01*
X031526Y002037D01*
X032171Y001909D01*
X032829Y001909D01*
X033474Y002037D01*
X033000Y001943D02*
X033000Y001659D01*
X032500Y001659D02*
X032500Y001909D01*
X032000Y001943D02*
X032000Y001659D01*
X031500Y001659D02*
X031500Y002048D01*
X031017Y002248D02*
X026483Y002248D01*
X026500Y002255D02*
X026500Y001659D01*
X026000Y001659D02*
X026000Y002048D01*
X025500Y001943D02*
X025500Y001659D01*
X025000Y001659D02*
X025000Y001909D01*
X024500Y001943D02*
X024500Y001659D01*
X024000Y001659D02*
X024000Y002048D01*
X023517Y002248D02*
X021356Y002248D01*
X021500Y001836D02*
X021500Y026673D01*
X021526Y026748D02*
X051344Y026748D01*
X051000Y026850D02*
X051000Y001659D01*
X051344Y001748D02*
X021531Y001748D01*
X022000Y001659D02*
X022000Y003765D01*
X022007Y003748D02*
X020831Y003748D01*
X020600Y004248D02*
X021800Y004248D01*
X021695Y004748D02*
X020160Y004748D01*
X020500Y004355D02*
X020500Y024154D01*
X020586Y024248D02*
X021800Y024248D01*
X021695Y023748D02*
X020160Y023748D01*
X020051Y023248D02*
X021661Y023248D01*
X021695Y022748D02*
X019588Y022748D01*
X019500Y022697D02*
X019500Y021226D01*
X020000Y021099D02*
X020000Y023160D01*
X019216Y022248D02*
X021800Y022248D01*
X022000Y021765D02*
X022000Y015730D01*
X022007Y015748D02*
X020352Y015748D01*
X020478Y016053D01*
X020478Y016442D01*
X020352Y016748D02*
X020478Y017053D01*
X020478Y017442D01*
X020352Y017748D01*
X051344Y017748D01*
X051344Y018248D02*
X020478Y018248D01*
X020478Y018442D02*
X020478Y018053D01*
X020352Y017748D01*
X020478Y017248D02*
X023517Y017248D01*
X023500Y017240D02*
X023500Y020255D01*
X023517Y020248D02*
X020478Y020248D01*
X020478Y020442D02*
X020478Y020053D01*
X020352Y019748D01*
X051344Y019748D01*
X051344Y020248D02*
X048983Y020248D01*
X049000Y020255D02*
X049000Y017240D01*
X048983Y017248D02*
X051344Y017248D01*
X051344Y016748D02*
X049722Y016748D01*
X049500Y016927D02*
X049500Y020568D01*
X049629Y020654D02*
X050094Y021119D01*
X050459Y021666D01*
X050711Y022274D01*
X050839Y022919D01*
X050839Y023576D01*
X050711Y024222D01*
X050459Y024829D01*
X050094Y025376D01*
X049629Y025841D01*
X049082Y026207D01*
X048474Y026458D01*
X047829Y026587D01*
X047171Y026587D01*
X046526Y026458D01*
X045918Y026207D01*
X045371Y025841D01*
X044906Y025376D01*
X044541Y024829D01*
X044289Y024222D01*
X044161Y023576D01*
X044161Y022919D01*
X044289Y022274D01*
X044541Y021666D01*
X044906Y021119D01*
X045371Y020654D01*
X045918Y020289D01*
X046526Y020037D01*
X047171Y019909D01*
X047829Y019909D01*
X048474Y020037D01*
X049082Y020289D01*
X049629Y020654D01*
X049722Y020748D02*
X051344Y020748D01*
X051344Y021248D02*
X050179Y021248D01*
X050000Y021025D02*
X050000Y016470D01*
X050179Y016248D02*
X051344Y016248D01*
X051344Y015748D02*
X050493Y015748D01*
X050500Y015730D02*
X050500Y021765D01*
X050493Y021748D02*
X051344Y021748D01*
X051344Y022248D02*
X050700Y022248D01*
X050805Y022748D02*
X051344Y022748D01*
X051344Y023248D02*
X050839Y023248D01*
X050805Y023748D02*
X051344Y023748D01*
X051344Y024248D02*
X050700Y024248D01*
X050500Y024730D02*
X050500Y026850D01*
X050000Y026850D02*
X050000Y025470D01*
X050179Y025248D02*
X051344Y025248D01*
X051344Y025748D02*
X049722Y025748D01*
X049500Y025927D02*
X049500Y026850D01*
X049000Y026850D02*
X049000Y026240D01*
X048983Y026248D02*
X051344Y026248D01*
X051344Y024748D02*
X050493Y024748D01*
X048500Y026448D02*
X048500Y026850D01*
X048000Y026850D02*
X048000Y026553D01*
X047500Y026587D02*
X047500Y026850D01*
X047000Y026850D02*
X047000Y026553D01*
X046500Y026448D02*
X046500Y026850D01*
X046000Y026850D02*
X046000Y026240D01*
X046017Y026248D02*
X041483Y026248D01*
X041500Y026240D02*
X041500Y026850D01*
X041000Y026850D02*
X041000Y026448D01*
X040974Y026458D02*
X040329Y026587D01*
X039671Y026587D01*
X039026Y026458D01*
X038418Y026207D01*
X037871Y025841D01*
X037406Y025376D01*
X037041Y024829D01*
X036789Y024222D01*
X036661Y023576D01*
X036661Y022919D01*
X036789Y022274D01*
X037041Y021666D01*
X037406Y021119D01*
X037871Y020654D01*
X038418Y020289D01*
X039026Y020037D01*
X039671Y019909D01*
X040329Y019909D01*
X040974Y020037D01*
X041582Y020289D01*
X042129Y020654D01*
X042594Y021119D01*
X042959Y021666D01*
X043211Y022274D01*
X043339Y022919D01*
X043339Y023576D01*
X043211Y024222D01*
X042959Y024829D01*
X042594Y025376D01*
X042129Y025841D01*
X041582Y026207D01*
X040974Y026458D01*
X040500Y026553D02*
X040500Y026850D01*
X040000Y026850D02*
X040000Y026587D01*
X039500Y026553D02*
X039500Y026850D01*
X039000Y026850D02*
X039000Y026448D01*
X038517Y026248D02*
X033983Y026248D01*
X034000Y026240D02*
X034000Y026850D01*
X033500Y026850D02*
X033500Y026448D01*
X033474Y026458D02*
X032829Y026587D01*
X032171Y026587D01*
X031526Y026458D01*
X030918Y026207D01*
X030371Y025841D01*
X029906Y025376D01*
X029541Y024829D01*
X029289Y024222D01*
X029161Y023576D01*
X029161Y022919D01*
X029289Y022274D01*
X029541Y021666D01*
X029906Y021119D01*
X030371Y020654D01*
X030918Y020289D01*
X031526Y020037D01*
X032171Y019909D01*
X032829Y019909D01*
X033474Y020037D01*
X034082Y020289D01*
X034629Y020654D01*
X035094Y021119D01*
X035459Y021666D01*
X035711Y022274D01*
X035839Y022919D01*
X035839Y023576D01*
X035711Y024222D01*
X035459Y024829D01*
X035094Y025376D01*
X034629Y025841D01*
X034082Y026207D01*
X033474Y026458D01*
X033000Y026553D02*
X033000Y026850D01*
X032500Y026850D02*
X032500Y026587D01*
X032000Y026553D02*
X032000Y026850D01*
X031500Y026850D02*
X031500Y026448D01*
X031017Y026248D02*
X026483Y026248D01*
X026500Y026240D02*
X026500Y026850D01*
X026000Y026850D02*
X026000Y026448D01*
X025500Y026553D02*
X025500Y026850D01*
X025000Y026850D02*
X025000Y026587D01*
X024500Y026553D02*
X024500Y026850D01*
X024000Y026850D02*
X024000Y026448D01*
X023517Y026248D02*
X021351Y026248D01*
X021176Y025748D02*
X022778Y025748D01*
X023000Y025927D02*
X023000Y026850D01*
X022500Y026850D02*
X022500Y025470D01*
X022321Y025248D02*
X021001Y025248D01*
X021000Y025245D02*
X021000Y003264D01*
X021006Y003248D02*
X022321Y003248D01*
X022500Y003025D02*
X022500Y001659D01*
X023000Y001659D02*
X023000Y002568D01*
X022778Y002748D02*
X021181Y002748D01*
X019534Y002248D02*
X019216Y002248D01*
X019500Y002343D02*
X019500Y000220D01*
X019216Y000220D02*
X020314Y000220D01*
X020223Y000312D01*
X020213Y000335D01*
X020197Y000353D01*
X020148Y000492D01*
X020092Y000628D01*
X020092Y000653D01*
X019329Y002832D01*
X019216Y002832D01*
X019216Y000220D01*
X019216Y000248D02*
X020287Y000248D01*
X020000Y000220D02*
X020000Y000915D01*
X020059Y000748D02*
X019216Y000748D01*
X019216Y001248D02*
X019884Y001248D01*
X019709Y001748D02*
X019216Y001748D01*
X019216Y002748D02*
X019359Y002748D01*
X023500Y002255D02*
X023500Y001659D01*
X027000Y001659D02*
X027000Y002568D01*
X027222Y002748D02*
X030278Y002748D01*
X030500Y002568D02*
X030500Y001659D01*
X031000Y001659D02*
X031000Y002255D01*
X030000Y001659D02*
X030000Y003025D01*
X029821Y003248D02*
X027679Y003248D01*
X027500Y003025D02*
X027500Y001659D01*
X028000Y001659D02*
X028000Y003765D01*
X027993Y003748D02*
X029507Y003748D01*
X029500Y003765D02*
X029500Y001659D01*
X029000Y001659D02*
X029000Y026850D01*
X028500Y026850D02*
X028500Y001659D01*
X028200Y004248D02*
X029300Y004248D01*
X029195Y004748D02*
X028305Y004748D01*
X028339Y005248D02*
X029161Y005248D01*
X029195Y005748D02*
X028305Y005748D01*
X028200Y006248D02*
X029300Y006248D01*
X029500Y006730D02*
X029500Y012765D01*
X029507Y012748D02*
X027993Y012748D01*
X028000Y012765D02*
X028000Y006730D01*
X027993Y006748D02*
X029507Y006748D01*
X029821Y007248D02*
X027679Y007248D01*
X027500Y007470D02*
X027500Y012025D01*
X027679Y012248D02*
X029821Y012248D01*
X029906Y012119D02*
X030371Y011654D01*
X030918Y011289D01*
X031526Y011037D01*
X032171Y010909D01*
X032829Y010909D01*
X033474Y011037D01*
X034082Y011289D01*
X034629Y011654D01*
X035094Y012119D01*
X035459Y012666D01*
X035711Y013274D01*
X035839Y013919D01*
X035839Y014576D01*
X035711Y015222D01*
X035459Y015829D01*
X035094Y016376D01*
X034629Y016841D01*
X034082Y017207D01*
X033474Y017458D01*
X032829Y017587D01*
X032171Y017587D01*
X031526Y017458D01*
X030918Y017207D01*
X030371Y016841D01*
X029906Y016376D01*
X029541Y015829D01*
X029289Y015222D01*
X029161Y014576D01*
X029161Y013919D01*
X029289Y013274D01*
X029541Y012666D01*
X029906Y012119D01*
X030000Y012025D02*
X030000Y007470D01*
X030278Y007748D02*
X027222Y007748D01*
X027000Y007927D02*
X027000Y011568D01*
X027222Y011748D02*
X030278Y011748D01*
X030500Y011568D02*
X030500Y007927D01*
X031000Y008240D02*
X031000Y011255D01*
X031017Y011248D02*
X026483Y011248D01*
X026500Y011255D02*
X026500Y008240D01*
X026483Y008248D02*
X031017Y008248D01*
X031500Y008448D02*
X031500Y011048D01*
X032000Y010943D02*
X032000Y008553D01*
X032500Y008587D02*
X032500Y010909D01*
X033000Y010943D02*
X033000Y008553D01*
X033500Y008448D02*
X033500Y011048D01*
X033983Y011248D02*
X038517Y011248D01*
X038500Y011255D02*
X038500Y008240D01*
X038517Y008248D02*
X033983Y008248D01*
X034000Y008240D02*
X034000Y011255D01*
X034500Y011568D02*
X034500Y007927D01*
X034722Y007748D02*
X037778Y007748D01*
X038000Y007927D02*
X038000Y011568D01*
X037871Y011654D02*
X038418Y011289D01*
X039026Y011037D01*
X039671Y010909D01*
X040329Y010909D01*
X040974Y011037D01*
X041582Y011289D01*
X042129Y011654D01*
X042594Y012119D01*
X042959Y012666D01*
X043211Y013274D01*
X043339Y013919D01*
X043339Y014576D01*
X043211Y015222D01*
X042959Y015829D01*
X042594Y016376D01*
X042129Y016841D01*
X041582Y017207D01*
X040974Y017458D01*
X040329Y017587D01*
X039671Y017587D01*
X039026Y017458D01*
X038418Y017207D01*
X037871Y016841D01*
X037406Y016376D01*
X037041Y015829D01*
X036789Y015222D01*
X036661Y014576D01*
X036661Y013919D01*
X036789Y013274D01*
X037041Y012666D01*
X037406Y012119D01*
X037871Y011654D01*
X037778Y011748D02*
X034722Y011748D01*
X035000Y012025D02*
X035000Y007470D01*
X035179Y007248D02*
X037321Y007248D01*
X037500Y007470D02*
X037500Y012025D01*
X037321Y012248D02*
X035179Y012248D01*
X035493Y012748D02*
X037007Y012748D01*
X037000Y012765D02*
X037000Y006730D01*
X037007Y006748D02*
X035493Y006748D01*
X035500Y006730D02*
X035500Y012765D01*
X035700Y013248D02*
X036800Y013248D01*
X036695Y013748D02*
X035805Y013748D01*
X035839Y014248D02*
X036661Y014248D01*
X036695Y014748D02*
X035805Y014748D01*
X035700Y015248D02*
X036800Y015248D01*
X037000Y015730D02*
X037000Y021765D01*
X037007Y021748D02*
X035493Y021748D01*
X035500Y021765D02*
X035500Y015730D01*
X035493Y015748D02*
X037007Y015748D01*
X037321Y016248D02*
X035179Y016248D01*
X035000Y016470D02*
X035000Y021025D01*
X035179Y021248D02*
X037321Y021248D01*
X037500Y021025D02*
X037500Y016470D01*
X037778Y016748D02*
X034722Y016748D01*
X034500Y016927D02*
X034500Y020568D01*
X034722Y020748D02*
X037778Y020748D01*
X038000Y020568D02*
X038000Y016927D01*
X038500Y017240D02*
X038500Y020255D01*
X038517Y020248D02*
X033983Y020248D01*
X034000Y020255D02*
X034000Y017240D01*
X033983Y017248D02*
X038517Y017248D01*
X039000Y017448D02*
X039000Y020048D01*
X039500Y019943D02*
X039500Y017553D01*
X040000Y017587D02*
X040000Y019909D01*
X040500Y019943D02*
X040500Y017553D01*
X041000Y017448D02*
X041000Y020048D01*
X041483Y020248D02*
X046017Y020248D01*
X046000Y020255D02*
X046000Y017240D01*
X046017Y017248D02*
X041483Y017248D01*
X041500Y017240D02*
X041500Y020255D01*
X042000Y020568D02*
X042000Y016927D01*
X042222Y016748D02*
X045278Y016748D01*
X045500Y016927D02*
X045500Y020568D01*
X045278Y020748D02*
X042222Y020748D01*
X042500Y021025D02*
X042500Y016470D01*
X042679Y016248D02*
X044821Y016248D01*
X045000Y016470D02*
X045000Y021025D01*
X044821Y021248D02*
X042679Y021248D01*
X042993Y021748D02*
X044507Y021748D01*
X044500Y021765D02*
X044500Y015730D01*
X044507Y015748D02*
X042993Y015748D01*
X043000Y015730D02*
X043000Y021765D01*
X043200Y022248D02*
X044300Y022248D01*
X044195Y022748D02*
X043305Y022748D01*
X043339Y023248D02*
X044161Y023248D01*
X044195Y023748D02*
X043305Y023748D01*
X043200Y024248D02*
X044300Y024248D01*
X044500Y024730D02*
X044500Y026850D01*
X044000Y026850D02*
X044000Y001659D01*
X043500Y001659D02*
X043500Y026850D01*
X043000Y026850D02*
X043000Y024730D01*
X042993Y024748D02*
X044507Y024748D01*
X044821Y025248D02*
X042679Y025248D01*
X042500Y025470D02*
X042500Y026850D01*
X042000Y026850D02*
X042000Y025927D01*
X042222Y025748D02*
X045278Y025748D01*
X045500Y025927D02*
X045500Y026850D01*
X045000Y026850D02*
X045000Y025470D01*
X038500Y026240D02*
X038500Y026850D01*
X038000Y026850D02*
X038000Y025927D01*
X037778Y025748D02*
X034722Y025748D01*
X034500Y025927D02*
X034500Y026850D01*
X035000Y026850D02*
X035000Y025470D01*
X035179Y025248D02*
X037321Y025248D01*
X037500Y025470D02*
X037500Y026850D01*
X037000Y026850D02*
X037000Y024730D01*
X037007Y024748D02*
X035493Y024748D01*
X035500Y024730D02*
X035500Y026850D01*
X036000Y026850D02*
X036000Y001659D01*
X035500Y001659D02*
X035500Y003765D01*
X035493Y003748D02*
X037007Y003748D01*
X037000Y003765D02*
X037000Y001659D01*
X036500Y001659D02*
X036500Y026850D01*
X036800Y024248D02*
X035700Y024248D01*
X035805Y023748D02*
X036695Y023748D01*
X036661Y023248D02*
X035839Y023248D01*
X035805Y022748D02*
X036695Y022748D01*
X036800Y022248D02*
X035700Y022248D01*
X033500Y020048D02*
X033500Y017448D01*
X033000Y017553D02*
X033000Y019943D01*
X032500Y019909D02*
X032500Y017587D01*
X032000Y017553D02*
X032000Y019943D01*
X031500Y020048D02*
X031500Y017448D01*
X031017Y017248D02*
X026483Y017248D01*
X026500Y017240D02*
X026500Y020255D01*
X026483Y020248D02*
X031017Y020248D01*
X031000Y020255D02*
X031000Y017240D01*
X030500Y016927D02*
X030500Y020568D01*
X030278Y020748D02*
X027222Y020748D01*
X027000Y020568D02*
X027000Y016927D01*
X027222Y016748D02*
X030278Y016748D01*
X030000Y016470D02*
X030000Y021025D01*
X029821Y021248D02*
X027679Y021248D01*
X027500Y021025D02*
X027500Y016470D01*
X027679Y016248D02*
X029821Y016248D01*
X029507Y015748D02*
X027993Y015748D01*
X028000Y015730D02*
X028000Y021765D01*
X027993Y021748D02*
X029507Y021748D01*
X029500Y021765D02*
X029500Y015730D01*
X029300Y015248D02*
X028200Y015248D01*
X028305Y014748D02*
X029195Y014748D01*
X029161Y014248D02*
X028339Y014248D01*
X028305Y013748D02*
X029195Y013748D01*
X029300Y013248D02*
X028200Y013248D01*
X026000Y011048D02*
X026000Y008448D01*
X025500Y008553D02*
X025500Y010943D01*
X025000Y010909D02*
X025000Y008587D01*
X024500Y008553D02*
X024500Y010943D01*
X024000Y011048D02*
X024000Y008448D01*
X023000Y007927D02*
X023000Y011568D01*
X022778Y011748D02*
X020352Y011748D01*
X020478Y012053D01*
X020478Y012442D01*
X020352Y012748D01*
X022007Y012748D01*
X022000Y012765D02*
X022000Y006730D01*
X022007Y006748D02*
X019216Y006748D01*
X019216Y006248D02*
X021800Y006248D01*
X022321Y007248D02*
X019216Y007248D01*
X019216Y007748D02*
X022778Y007748D01*
X022500Y007470D02*
X022500Y012025D01*
X022321Y012248D02*
X020478Y012248D01*
X020352Y012748D02*
X020478Y013053D01*
X020478Y013442D01*
X020352Y013748D01*
X021695Y013748D01*
X021661Y014248D02*
X020478Y014248D01*
X020478Y014442D02*
X020352Y014748D01*
X021695Y014748D01*
X021800Y015248D02*
X020478Y015248D01*
X020478Y015442D02*
X020478Y015053D01*
X020352Y014748D01*
X020478Y014442D02*
X020478Y014053D01*
X020352Y013748D01*
X020478Y013248D02*
X021795Y013248D01*
X020352Y011748D02*
X020478Y011442D01*
X020478Y015442D02*
X020352Y015748D01*
X024000Y017448D02*
X024000Y020048D01*
X024500Y019943D02*
X024500Y017553D01*
X025000Y017587D02*
X025000Y019909D01*
X025500Y019943D02*
X025500Y017553D01*
X026000Y017448D02*
X026000Y020048D01*
X028200Y022248D02*
X029300Y022248D01*
X029195Y022748D02*
X028305Y022748D01*
X028339Y023248D02*
X029161Y023248D01*
X029195Y023748D02*
X028305Y023748D01*
X028200Y024248D02*
X029300Y024248D01*
X029500Y024730D02*
X029500Y026850D01*
X030000Y026850D02*
X030000Y025470D01*
X029821Y025248D02*
X027679Y025248D01*
X027500Y025470D02*
X027500Y026850D01*
X027000Y026850D02*
X027000Y025927D01*
X027222Y025748D02*
X030278Y025748D01*
X030500Y025927D02*
X030500Y026850D01*
X031000Y026850D02*
X031000Y026240D01*
X029507Y024748D02*
X027993Y024748D01*
X028000Y024730D02*
X028000Y026850D01*
X023500Y026850D02*
X023500Y026240D01*
X022000Y026850D02*
X022000Y024730D01*
X022007Y024748D02*
X020826Y024748D01*
X019329Y025676D02*
X019216Y025676D01*
X019216Y028144D01*
X020193Y028144D01*
X020148Y028017D01*
X020092Y027881D01*
X020092Y027856D01*
X019329Y025676D01*
X019354Y025748D02*
X019216Y025748D01*
X019216Y026248D02*
X019529Y026248D01*
X019500Y026166D02*
X019500Y028144D01*
X020000Y028144D02*
X020000Y027594D01*
X020054Y027748D02*
X019216Y027748D01*
X019216Y027248D02*
X019879Y027248D01*
X019704Y026748D02*
X019216Y026748D01*
X019216Y021748D02*
X022007Y021748D01*
X020329Y020802D02*
X020478Y020442D01*
X020352Y019748D02*
X020478Y019442D01*
X020478Y019053D01*
X020352Y018748D01*
X051344Y018748D01*
X051344Y019248D02*
X020478Y019248D01*
X020352Y018748D02*
X020478Y018442D01*
X039000Y011048D02*
X039000Y008448D01*
X039500Y008553D02*
X039500Y010943D01*
X040000Y010909D02*
X040000Y008587D01*
X040500Y008553D02*
X040500Y010943D01*
X041000Y011048D02*
X041000Y008448D01*
X041483Y008248D02*
X046017Y008248D01*
X046000Y008240D02*
X046000Y011255D01*
X046017Y011248D02*
X041483Y011248D01*
X041500Y011255D02*
X041500Y008240D01*
X042000Y007927D02*
X042000Y011568D01*
X042222Y011748D02*
X045278Y011748D01*
X045500Y011568D02*
X045500Y007927D01*
X045278Y007748D02*
X042222Y007748D01*
X042500Y007470D02*
X042500Y012025D01*
X042679Y012248D02*
X044821Y012248D01*
X045000Y012025D02*
X045000Y007470D01*
X044821Y007248D02*
X042679Y007248D01*
X042993Y006748D02*
X044507Y006748D01*
X044500Y006730D02*
X044500Y012765D01*
X044507Y012748D02*
X042993Y012748D01*
X043000Y012765D02*
X043000Y006730D01*
X043200Y006248D02*
X044300Y006248D01*
X044195Y005748D02*
X043305Y005748D01*
X043339Y005248D02*
X044161Y005248D01*
X044195Y004748D02*
X043305Y004748D01*
X043200Y004248D02*
X044300Y004248D01*
X044500Y003765D02*
X044500Y001659D01*
X045000Y001659D02*
X045000Y003025D01*
X044821Y003248D02*
X042679Y003248D01*
X042500Y003025D02*
X042500Y001659D01*
X042000Y001659D02*
X042000Y002568D01*
X042222Y002748D02*
X045278Y002748D01*
X045500Y002568D02*
X045500Y001659D01*
X046000Y001659D02*
X046000Y002255D01*
X044507Y003748D02*
X042993Y003748D01*
X043000Y003765D02*
X043000Y001659D01*
X038500Y001659D02*
X038500Y002255D01*
X038000Y002568D02*
X038000Y001659D01*
X037500Y001659D02*
X037500Y003025D01*
X037321Y003248D02*
X035179Y003248D01*
X035000Y003025D02*
X035000Y001659D01*
X034500Y001659D02*
X034500Y002568D01*
X034722Y002748D02*
X037778Y002748D01*
X036800Y004248D02*
X035700Y004248D01*
X035805Y004748D02*
X036695Y004748D01*
X036661Y005248D02*
X035839Y005248D01*
X035805Y005748D02*
X036695Y005748D01*
X036800Y006248D02*
X035700Y006248D01*
X046500Y008448D02*
X046500Y011048D01*
X047000Y010943D02*
X047000Y008553D01*
X047500Y008587D02*
X047500Y010909D01*
X048000Y010943D02*
X048000Y008553D01*
X048500Y008448D02*
X048500Y011048D01*
X049500Y011568D02*
X049500Y007927D01*
X049722Y011748D02*
X051344Y011748D01*
X051344Y013248D02*
X050700Y013248D01*
X050805Y013748D02*
X051344Y013748D01*
X051344Y014248D02*
X050839Y014248D01*
X050805Y014748D02*
X051344Y014748D01*
X051344Y015248D02*
X050700Y015248D01*
X048500Y017448D02*
X048500Y020048D01*
X048000Y019943D02*
X048000Y017553D01*
X047500Y017587D02*
X047500Y019909D01*
X047000Y019943D02*
X047000Y017553D01*
X046500Y017448D02*
X046500Y020048D01*
X044300Y015248D02*
X043200Y015248D01*
X043305Y014748D02*
X044195Y014748D01*
X044161Y014248D02*
X043339Y014248D01*
X043305Y013748D02*
X044195Y013748D01*
X044300Y013248D02*
X043200Y013248D01*
X049500Y002568D02*
X049500Y001659D01*
M02*
